<svg id="Layer_1" data-name="Layer 1" xmlns="http://www.w3.org/2000/svg" viewBox="0 0 873.3 793.15"><defs><style>.cls-1{fill:none;}.cls-2{fill:#fafafa;}.cls-3{fill:#5e5e60;}</style></defs><title>TABLE_EXPAND_BIG</title><path class="cls-1" d="M850.81,386.15h0Z" transform="translate(0 0)"/><path class="cls-2" d="M564.68,512.55l.18,1Z" transform="translate(0 0)"/><path class="cls-2" d="M634.93,791.59c-.38.11-.78.2-1.19.29C634.15,791.79,634.55,791.7,634.93,791.59Z" transform="translate(0 0)"/><path class="cls-2" d="M311.79,520.89l-8.18,33.42c2-7.93,4-15.91,6-23.78C310.39,527.38,311.12,524.16,311.79,520.89Z" transform="translate(0 0)"/><path class="cls-2" d="M631.86,792.15h0c.53,0,1-.12,1.52-.2-.49.09-1,.16-1.52.2Z" transform="translate(0 0)"/><path class="cls-2" d="M255,668.53c.21.09.75.12,2-.63h-2.26C254.73,668.11,254.79,668.43,255,668.53Z" transform="translate(0 0)"/><path class="cls-2" d="M642.14,784l-.93-1.61c-.93,1.24-3.63,3.31-11.36,3.76-3.54.21-47.08.27-103.58.27-112.05,0-275-.27-277.49-.27-.32,0-7.5-.69-10-4.48l-.58,1-2.17,2.8a2.85,2.85,0,0,0,.67,1.18,14.94,14.94,0,0,0,9.55,4.53c7.3.6,191.65,1,193.55,1s184.64-.4,192-1A14.85,14.85,0,0,0,641,787,3.73,3.73,0,0,0,642.14,784Z" transform="translate(0 0)"/><path class="cls-2" d="M16.12,355.27h841a10.19,10.19,0,0,0,8-3.49,9.84,9.84,0,0,0,2-8.18l-58-329.94C808.33,8.89,803,5,797.23,5h0L75.35,6.41c-5.71,0-11,3.91-11.82,8.69L6.17,343.67a9.84,9.84,0,0,0,2,8.16A10.11,10.11,0,0,0,16.12,355.27ZM93,22.57l.07-.42H780.55l48.85,306H44.23Z" transform="translate(0 0)"/><path class="cls-2" d="M254.62,669.45a1.47,1.47,0,0,1-.82-1c-1.22.89-4,3.68-5.08,11.25-1.42,9.86-11.12,86.17-12,96-.32,3.72-.58,6.46-.76,8.2l1.38-1.78c.68-2.08,15.75-48.37,23-68.86,7.43-21,39.26-119.28,41-127.78.52-2.58,1.85-8.29,3.53-15.52,3.85-16.55,9.66-41.57,10.46-49.35a87.07,87.07,0,0,0,.26-15c-1.35,8.65-3,17.13-5,25.21-16.42,66.12-30,113.23-43,128.21C257.44,670.65,255.32,669.75,254.62,669.45Z" transform="translate(0 0)"/><path class="cls-2" d="M11.12,359.28h851a10.19,10.19,0,0,0,8-3.49,9.84,9.84,0,0,0,2-8.18l-59-337.94C812.33,4.89,807,1,801.23,1h0L70.35,2.41c-5.71,0-11,3.91-11.82,8.68L1.17,347.67a9.84,9.84,0,0,0,2,8.16A10.11,10.11,0,0,0,11.12,359.28ZM5.18,343.5,62.54,14.93c.89-5.24,6.64-9.5,12.81-9.52L797.21,4h0c6.21,0,12,4.26,12.91,9.5l58,329.94a10.82,10.82,0,0,1-2.24,9,11.17,11.17,0,0,1-8.76,3.84h-841a11.1,11.1,0,0,1-8.68-3.81A10.83,10.83,0,0,1,5.18,343.5Z" transform="translate(0 0)"/><path class="cls-2" d="M318.12,486.15H559.87c-5.19-47-2.9-93.2-2.59-98.93l-120.47-.06-116.21.06C320.92,392.94,323.18,439.12,318.12,486.15Z" transform="translate(0 0)"/><polygon class="cls-2" points="779.7 23.15 93.94 23.15 45.41 327.15 828.23 327.15 779.7 23.15"/><path class="cls-2" d="M871.32,375.67l.81-21.11a10.22,10.22,0,0,1-1.25,1.88,11.17,11.17,0,0,1-8.76,3.84h-851a11.1,11.1,0,0,1-8.68-3.81,10.21,10.21,0,0,1-1.39-2.16l.25,21.25c0,.1,2.3,10.35,21.52,10.6,17.92.23,347,0,409,0h10c61.42,0,385.26.22,408.44,0h.56C870,385.9,871.31,375.74,871.32,375.67Z" transform="translate(0 0)"/><path class="cls-2" d="M641.93,781.65v0h0Z" transform="translate(0 0)"/><path class="cls-2" d="M610.44,658c-9.42-10.83-20.35-36.78-43.11-128.21-1.41-5.66-2.64-11.51-3.72-17.47.2,2.21.43,4.66.7,7.3.8,7.79,6.62,32.84,10.46,49.42,1.68,7.23,3,12.95,3.53,15.53,1.72,8.5,33.55,106.86,41,127.93,6.6,18.72,19.73,59,22.49,67.42-.12-1.39-.27-3.09-.46-5.21-.88-10.21-10.52-85.79-12-96-1.1-7.57-3.88-10.37-5.1-11.25a1.47,1.47,0,0,1-.82,1C622.72,668.75,620.6,669.66,610.44,658Z" transform="translate(0 0)"/><path class="cls-2" d="M560.33,490.15H317.82v-1h242.4q-.12-1-.23-2H318c-.53,4.84-1.14,9.68-1.84,14.48a80.86,80.86,0,0,1,.14,19.08c-.81,7.85-6.63,32.9-10.48,49.47-1.68,7.22-3,12.92-3.53,15.5-1.73,8.52-33.58,106.85-41,127.91C254.9,731.69,242.38,770,239.1,780l.18.43c1.67,4,9.5,4.69,9.54,4.69,3.7,0,370.43.61,381,0,10-.58,10.91-3.85,10.91-3.88l.17-.91c-2.65-8.13-15.89-48.73-22.53-67.55-7.44-21.09-39.29-119.54-41-128.07-.52-2.57-1.85-8.28-3.52-15.51-3.85-16.6-9.68-41.69-10.48-49.54-1.13-11-1.6-18.94-1.61-19h0Q561,495.43,560.33,490.15Z" transform="translate(0 0)"/><path class="cls-2" d="M623,667.53c.24-.1.29-.44.31-.65H621C622.25,667.65,622.8,667.62,623,667.53Z" transform="translate(0 0)"/><path class="cls-3" d="M873.3,350a12.32,12.32,0,0,0-.17-2.61L814.15,9.5C813.23,4.25,807.47,0,801.21,0L70.35,1.41c-6.17,0-11.92,4.28-12.81,9.52L.18,347.5A12.42,12.42,0,0,0,0,349.66H0l.32,26c.1.54,2.4,11.24,22.49,11.49,6.6.08,55.38.11,117.46.11,56,0,122.83,0,179.33,0,.37,6.77,3.87,77.41-7.81,133.68-.68,3.26-1.4,6.48-2.19,9.64-2,7.87-4,15.85-6,23.78-11.72,45.69-24.63,90-36.81,104a69.14,69.14,0,0,1-8.44,8.58h-3.6l-.73.28c-.19.08-4.79,2-6.3,12.4-1.47,10.18-11.09,85.8-12,96-.35,4-.62,6.94-.81,8.62a3.84,3.84,0,0,0,1.05,3.1,16,16,0,0,0,10.19,4.83c7.34.61,186,1,193.63,1v0c7.54,0,184.61-.4,192-1h0c.53,0,1-.12,1.52-.2l.36-.07c.41-.08.81-.18,1.19-.29a15.89,15.89,0,0,0,6.79-3.91,4.73,4.73,0,0,0,1.42-3.85c-.14-1.51-.39-4.26-.82-9.22-.88-10.21-10.53-85.84-12-96-1.51-10.44-6.12-12.32-6.32-12.4l-.75-.29V666l0-.1h-3.59a69.66,69.66,0,0,1-8.43-8.55c-14.33-16.48-29.65-74.61-42.89-127.79-1.29-5.2-2.44-10.56-3.45-16l-.18-1c-10-54.72-6.75-118.88-6.39-125.33,55.58,0,120.48,0,175.08,0,62.1,0,110.86,0,117.46-.11,20.13-.26,21.44-11,21.49-11.41l1-25.69Zm-22.48,36.1h-.55c-23.18.22-347,0-408.44,0h-10c-62,0-391.08.22-409,0-19.22-.25-21.5-10.49-21.52-10.6l-.25-21.25a10.21,10.21,0,0,0,1.39,2.16,11.1,11.1,0,0,0,8.68,3.81h851a11.17,11.17,0,0,0,8.76-3.84,10.22,10.22,0,0,0,1.25-1.88l-.81,21.11c0,.07-1.33,10.24-20.51,10.48ZM563.32,519.7c.81,7.86,6.63,32.94,10.48,49.54,1.68,7.23,3,12.93,3.52,15.51,1.73,8.52,33.58,107,41,128.07,6.64,18.82,19.88,59.42,22.53,67.55l-.17.91s-.9,3.3-10.91,3.88c-10.54.61-377.27,0-381,0,0,0-7.87-.73-9.54-4.69l-.18-.43c3.28-10.06,15.8-48.33,22.19-66.44,7.44-21.06,39.29-119.39,41-127.91.52-2.57,1.85-8.27,3.53-15.5,3.85-16.58,9.67-41.63,10.48-49.47a80.86,80.86,0,0,0-.14-19.08c.7-4.8,1.31-9.64,1.84-14.48H560q.11,1,.23,2H317.82v1H560.33q.63,5.27,1.39,10.53h0C561.72,500.76,562.19,508.69,563.32,519.7Zm59.84,147.18h.16c0,.21-.07.55-.31.65s-.76.12-2-.65Zm.25,1.57a1.47,1.47,0,0,0,.82-1c1.22.88,4,3.68,5.1,11.25,1.47,10.18,11.11,85.77,12,96,.18,2.12.33,3.82.46,5.21-2.76-8.47-15.89-48.7-22.49-67.42-7.43-21.08-39.26-119.43-41-127.93-.52-2.59-1.85-8.3-3.53-15.53-3.85-16.58-9.66-41.62-10.46-49.42-.27-2.63-.5-5.08-.7-7.3,1.08,6,2.31,11.81,3.72,17.47C590.09,621.2,601,647.15,610.44,658,620.6,669.66,622.72,668.75,623.41,668.45Zm18.52,113.2,0,0h0ZM320.6,387.21l116.21-.06,120.47.06c-.32,5.74-2.6,51.89,2.59,98.93H318.12C323.18,439.12,320.92,392.94,320.6,387.21ZM1.17,347.67,58.53,11.1c.81-4.78,6.12-8.67,11.82-8.68L801.21,1h0c5.74,0,11.09,3.89,11.93,8.68l59,337.94a9.84,9.84,0,0,1-2,8.18,10.19,10.19,0,0,1-8,3.49h-851a10.11,10.11,0,0,1-7.91-3.45A9.84,9.84,0,0,1,1.17,347.67Zm309.41,183.1c2-8.07,3.65-16.56,5-25.21a87.07,87.07,0,0,1-.26,15c-.8,7.78-6.61,32.8-10.46,49.35-1.68,7.23-3,12.94-3.53,15.52-1.72,8.5-33.55,106.73-41,127.78-7.23,20.49-22.3,66.78-23,68.86L236,783.89c.19-1.73.44-4.48.76-8.2.85-9.8,10.55-86.11,12-96,1.09-7.57,3.86-10.36,5.08-11.25a1.47,1.47,0,0,0,.82,1c.7.3,2.81,1.2,12.94-10.47C280.55,644,294.15,596.89,310.58,530.77ZM254.77,667.9H257c-1.21.75-1.74.72-2,.63s-.29-.42-.3-.63Zm377,123.25c-7.32.6-190.08,1-192,1s-186.24-.39-193.55-1a14.94,14.94,0,0,1-9.55-4.53,2.85,2.85,0,0,1-.67-1.18l2.17-2.8.58-1c2.48,3.79,9.66,4.45,10,4.48,2.49,0,165.44.27,277.49.27,56.5,0,100-.07,103.58-.27,7.73-.45,10.43-2.52,11.36-3.76l.93,1.61a3.73,3.73,0,0,1-1.13,3A14.85,14.85,0,0,1,631.78,791.15Z" transform="translate(0 0)"/><path class="cls-3" d="M16.12,356.27h841a11.17,11.17,0,0,0,8.76-3.84,10.82,10.82,0,0,0,2.24-9l-58-329.94c-.92-5.24-6.7-9.5-12.91-9.5h0L75.35,5.41c-6.17,0-11.92,4.28-12.81,9.52L5.18,343.5a10.83,10.83,0,0,0,2.27,9A11.1,11.1,0,0,0,16.12,356.27Zm-10-12.61L63.53,15.1c.82-4.78,6.12-8.68,11.82-8.69L797.21,5h0c5.74,0,11.09,3.89,11.93,8.68l58,329.94a9.84,9.84,0,0,1-2,8.18,10.19,10.19,0,0,1-8,3.49h-841a10.11,10.11,0,0,1-7.91-3.45A9.84,9.84,0,0,1,6.17,343.67Z" transform="translate(0 0)"/><path class="cls-3" d="M780.55,22.15H93.09l-.07.42L44.23,328.15H829.41Zm-686.61,1H779.7l48.53,304H45.41Z" transform="translate(0 0)"/></svg>