<svg id="Layer_1" data-name="Layer 1" xmlns="http://www.w3.org/2000/svg" viewBox="0 0 779.35 700.28"><defs><style>.cls-1{fill:none;}.cls-2{fill:#5e5e60;}</style></defs><title>TABLE</title><path class="cls-1" d="M5.54,235.11a16.15,16.15,0,0,0,4.56,4.94,12.5,12.5,0,0,0,2,1.06l.45.2c1.18.54,5.64,1.93,7.26,2.41l538.41,162.8,14.32,3.72c.19.06,15.26,4.61,23-.7,6-4.15,7.25-5.88,9.86-11.49S754.2,103,770.87,70l.28-.56,1.72-3.61c.65-1.55,1.25-3.7,1.08-4.35-2-2.59-5.64-4.3-12.16-4.84C746,55.31,285.94,7.82,233.53,2.41l-1.14-.12a2.18,2.18,0,0,1-.53-.12c-.27-.1-6.66-2.21-20.93,12.54C195.59,30.57,7.12,221.7,5.22,223.63a14.39,14.39,0,0,0-2.43,4.31A20.88,20.88,0,0,0,5.54,235.11Zm28-13.78L229.39,16.4a2.47,2.47,0,0,1,2.06-.74L742,74.77a2.46,2.46,0,0,1,1.87,3.62L579.7,377.8a2.45,2.45,0,0,1-2.15,1.28,2.48,2.48,0,0,1-.67-.09L34.61,225.4a2.46,2.46,0,0,1-1.11-4.06Z" transform="translate(0.01 -0.01)"/><path class="cls-1" d="M35.16,223.47,577.42,377.06a.46.46,0,0,0,.53-.22L742.1,77.43a.46.46,0,0,0-.35-.67L231.21,17.65h-.05a.46.46,0,0,0-.33.14L35,222.72a.46.46,0,0,0,.21.76Z" transform="translate(0.01 -0.01)"/><path class="cls-1" d="M457.51,692.58a6.14,6.14,0,0,0,4,.55,11.62,11.62,0,0,0,1.75-.55l.47.89-.37-.93a10.54,10.54,0,0,0,5.69-5.7c3.36-8,14.33-36.55,14.63-68.56.32-34.94-4.28-56.72-9.15-79.79l-.42-2c-4.25-20.17-13.1-62.14-13.87-90.31-.7-25.44-.33-39.49,0-43.78a20.06,20.06,0,0,0,0-2.28L366,370.51l-60.78-19a.5.5,0,0,0-.21.08.44.44,0,0,0-.18.37c.42,13.33,2,81.46-8.76,114.39-1,3-1.9,5.85-2.74,8.47-9.34,29-11.29,35-34.71,64.26-20.15,25.2-27.06,29.87-30.77,32.39a15.69,15.69,0,0,0-2.33,1.78,15.37,15.37,0,0,0-2.93,4Z" transform="translate(0.01 -0.01)"/><path class="cls-1" d="M481.94,408.8l0-.3c0-.21-.05-.48-.07-.71l-.06-.58a.46.46,0,0,0-.32-.44l-19.13-6c0,.51,0,1.11-.07,1.8,0,.47-.87,11.81,0,43.57.77,28,9.59,69.84,13.83,89.95l.42,2c4.89,23.18,9.51,45.07,9.19,80.22-.3,32.37-11.39,61.24-14.78,69.32a12.54,12.54,0,0,1-6.78,6.78l-.47-.89.37.93a13.4,13.4,0,0,1-2.05.65,7.45,7.45,0,0,1-1.61.17,8.46,8.46,0,0,1-3.71-.88L221.77,579a6.09,6.09,0,0,0-.35,2.51c7,4.7,152.67,76.08,229.61,113.59.13.07,8.29,4.5,13.75,2.75l.34-.11c4.46-1.42,4.46-1.42,5.72-2.94.35-.42.78-.94,1.38-1.6,3.11-3.44,90.37-96.65,91.25-97.58a.44.44,0,0,0,.12-.29c0-1.41.14-6.13,0-7.85a4.38,4.38,0,0,0-.33-1.31,25.67,25.67,0,0,1-12.48,3.2,27.86,27.86,0,0,1-11.37-2.49c-11.64-5.16-20.2-11.25-23.48-16.7a29.93,29.93,0,0,1-3.36-6.81c-2.8-3.72-15.78-37.31-18.2-51.43l-.46-2.66c-2.7-15.66-9-52.33-10.21-76.94C483.12,420.62,482.53,412.69,481.94,408.8Z" transform="translate(0.01 -0.01)"/><path class="cls-1" d="M776.85,73.89c-.19-3.64-.36-6.88-1.34-9.55a22.35,22.35,0,0,1-.82,2.3L773,70.2l-.07.14-.28.55c-16.67,33-162.89,322.56-165.43,328-2.76,5.92-4.29,8-10.54,12.29-3.25,2.24-7.53,2.94-11.6,2.94a49.36,49.36,0,0,1-13.07-2l-14.31-3.72L19.26,245.65c-.24-.07-6-1.8-7.52-2.51l-.43-.2A14.25,14.25,0,0,1,9,241.7a18.15,18.15,0,0,1-5.13-5.54A27,27,0,0,1,2,232.43,12.51,12.51,0,0,0,2.89,237c.49,1.24,1,2.52,1.46,3.8,2,5.26,4.08,10.69,6,13.11a20.48,20.48,0,0,0,3.17,3.2A10.29,10.29,0,0,0,16.78,259c2.06.6,3.82,1.22,4.69,1.54l1,.34h0l283.05,88.61a2.45,2.45,0,0,1,.46.08l60.94,19.14,204,63.85,10.18,2.55c.2.06,15.27,4.61,23-.7,6-4.15,7.25-5.88,9.86-11.49,2.69-5.78,159.91-317.84,161.49-321l1.6-4a.42.42,0,0,0,0-.14,175,175,0,0,0,0-20.87C776.95,75.91,776.9,74.89,776.85,73.89Z" transform="translate(0.01 -0.01)"/><path class="cls-1" d="M517.58,569.11c3.07,5.1,11.5,11,22.61,16a24.65,24.65,0,0,0,22-.57c-2.1-2.46-6.47-4.8-12.79-6.79-9.6-3-27-9.09-33.9-12.46A26,26,0,0,0,517.58,569.11Z" transform="translate(0.01 -0.01)"/><path class="cls-2" d="M34.61,225.4,576.88,379a2.48,2.48,0,0,0,.67.09,2.45,2.45,0,0,0,2.15-1.28L743.85,78.39A2.46,2.46,0,0,0,742,74.77L231.44,15.66a2.47,2.47,0,0,0-2.06.74L33.5,221.34a2.46,2.46,0,0,0,1.11,4.06Zm.34-2.68L230.83,17.78a.46.46,0,0,1,.33-.14h.05L741.75,76.76a.46.46,0,0,1,.35.67L577.95,376.84a.46.46,0,0,1-.53.22L35.16,223.47a.46.46,0,0,1-.21-.76Z" transform="translate(0.01 -0.01)"/><path class="cls-2" d="M779,76.79c-.07-1-.12-2-.17-3-.47-9.17-.92-17.83-16.89-19.15C746.18,53.32,286.14,5.83,233.74.42l-1.2-.13c-1.29-.47-8.45-2.06-23.05,13C194.16,29.17,5.7,220.3,3.76,222.26A16.44,16.44,0,0,0,1,227.14l-.16,0c0,.15,0,.32,0,.49A14.47,14.47,0,0,0,1,237.73c.49,1.23,1,2.51,1.46,3.78,2.16,5.65,4.2,11,6.32,13.65a22.5,22.5,0,0,0,3.48,3.52,12.05,12.05,0,0,0,3.93,2.25c2,.59,3.72,1.19,4.56,1.5l1.08.37,281.18,88a2.44,2.44,0,0,0-.27,1.18c.42,13.27,2,81.1-8.66,113.71-1,3-1.9,5.85-2.75,8.48C282.13,502.84,280.2,508.8,257,537.8c-20,25-26.71,29.53-30.33,32a17.41,17.41,0,0,0-2.61,2c-3.79,3.73-5.16,8.22-4.52,10.56.22.8.47,1.71,115.77,58.37,56.79,27.91,114.26,55.93,114.79,56.19.3.17,6.21,3.38,11.8,3.38a11.39,11.39,0,0,0,3.48-.5l.34-.11c4.82-1.54,5-1.6,6.65-3.57.34-.4.75-.9,1.33-1.54C476.8,691.15,564,598,564.92,597a2.45,2.45,0,0,0,.66-1.61c0-1.84.14-6.3,0-8.08-.41-4.52-5.66-8.39-15.61-11.51-14.17-4.45-34.08-11.83-35.8-13.59s-15.24-35.48-17.84-50.59l-.46-2.66c-2.7-15.62-9-52.21-10.18-76.7-.56-11.82-1.16-19.82-1.76-23.78l0-.25c0-.19,0-.43-.07-.66l0-.19,86.51,27.08L580.52,437a49.39,49.39,0,0,0,13.06,2c4.07,0,8.35-.7,11.6-2.94,6.25-4.31,7.78-6.37,10.54-12.29C618.4,418,775.6,106,777.19,102.83l.08-.18,1.59-4a2.47,2.47,0,0,0,.17-.76A177.05,177.05,0,0,0,779,76.79ZM5.22,223.63C7.12,221.7,195.59,30.57,210.93,14.71,225.2,0,231.59,2.08,231.85,2.17a2.18,2.18,0,0,0,.53.12l1.14.12C285.94,7.82,746,55.31,761.79,56.63c6.52.54,10.12,2.25,12.16,4.84.18.65-.42,2.8-1.08,4.35l-1.72,3.61-.28.56C754.2,103,608,392.58,605.41,398.06s-3.84,7.34-9.86,11.49c-7.72,5.32-22.79.76-23,.7l-14.32-3.72L19.84,243.73c-1.62-.49-6.08-1.87-7.26-2.41l-.45-.2a12.5,12.5,0,0,1-2-1.06,16.15,16.15,0,0,1-4.56-4.94,20.88,20.88,0,0,1-2.75-7.18A14.39,14.39,0,0,1,5.22,223.63ZM225.47,573.22a15.69,15.69,0,0,1,2.33-1.78c3.71-2.51,10.62-7.19,30.77-32.39,23.42-29.28,25.36-35.31,34.71-64.26.85-2.62,1.75-5.43,2.74-8.47,10.74-32.92,9.18-101.06,8.76-114.39a.44.44,0,0,1,.18-.37.5.5,0,0,1,.21-.08l60.78,19,94.34,29.63a20.06,20.06,0,0,1,0,2.28c-.33,4.29-.7,18.34,0,43.78.77,28.17,9.62,70.14,13.87,90.31l.42,2c4.87,23.07,9.47,44.86,9.15,79.79-.3,32-11.27,60.57-14.63,68.56a10.54,10.54,0,0,1-5.69,5.7l.37.93-.47-.89a11.62,11.62,0,0,1-1.75.55,6.14,6.14,0,0,1-4-.55l-235-115.39A15.37,15.37,0,0,1,225.47,573.22ZM562.15,584.5a24.65,24.65,0,0,1-22,.57c-11.11-4.92-19.55-10.87-22.61-16a26,26,0,0,1-2.13-3.85c6.9,3.37,24.3,9.45,33.9,12.46C555.67,579.7,560,582,562.15,584.5Zm-68.26-75.19.46,2.66c2.42,14.12,15.41,47.71,18.2,51.43a29.93,29.93,0,0,0,3.36,6.81c3.28,5.45,11.83,11.54,23.48,16.7a27.86,27.86,0,0,0,11.37,2.49,25.67,25.67,0,0,0,12.48-3.2,4.38,4.38,0,0,1,.33,1.31c.15,1.73,0,6.45,0,7.85a.44.44,0,0,1-.12.29c-.88.94-88.14,94.15-91.25,97.58-.6.66-1,1.18-1.38,1.6-1.26,1.52-1.26,1.52-5.72,2.94l-.34.11c-5.46,1.75-13.62-2.68-13.75-2.75C374.09,657.62,228.4,586.25,221.42,581.54a6.09,6.09,0,0,1,.35-2.51L456.63,694.38a8.46,8.46,0,0,0,3.71.88,7.45,7.45,0,0,0,1.61-.17,13.4,13.4,0,0,0,2.05-.65l-.37-.93.47.89a12.54,12.54,0,0,0,6.78-6.78c3.39-8.08,14.48-36.95,14.78-69.32.33-35.15-4.3-57-9.19-80.22l-.42-2c-4.24-20.11-13.06-62-13.83-89.95-.87-31.76,0-43.1,0-43.57.05-.69.07-1.3.07-1.8l19.13,6a.46.46,0,0,1,.32.44l.06.58c0,.23,0,.5.07.71l0,.3c.59,3.89,1.18,11.82,1.74,23.57C484.85,457,491.18,493.65,493.88,509.31ZM777,97.8a.42.42,0,0,1,0,.14l-1.6,4c-1.59,3.15-158.8,315.21-161.49,321-2.61,5.61-3.83,7.34-9.86,11.49-7.72,5.32-22.79.76-23,.7l-10.18-2.55-204-63.85L306,349.58a2.45,2.45,0,0,0-.46-.08L22.47,260.88h0l-1-.34c-.87-.32-2.63-.94-4.69-1.54a10.29,10.29,0,0,1-3.25-1.89,20.48,20.48,0,0,1-3.17-3.2c-1.93-2.42-4-7.85-6-13.11-.49-1.28-1-2.56-1.46-3.8A12.51,12.51,0,0,1,2,232.43a27,27,0,0,0,1.82,3.72A18.15,18.15,0,0,0,9,241.7a14.25,14.25,0,0,0,2.35,1.24l.43.2c1.54.71,7.28,2.44,7.52,2.51L557.71,408.46,572,412.17a49.36,49.36,0,0,0,13.07,2c4.07,0,8.34-.7,11.6-2.94,6.25-4.3,7.78-6.37,10.54-12.29,2.54-5.45,148.77-295,165.43-328l.28-.55.07-.14,1.69-3.56a22.35,22.35,0,0,0,.82-2.3c1,2.67,1.15,5.92,1.34,9.55.05,1,.1,2,.18,3A175,175,0,0,1,777,97.8Z" transform="translate(0.01 -0.01)"/></svg>