<svg id="Layer_1" data-name="Layer 1" xmlns="http://www.w3.org/2000/svg" viewBox="0 0 223.29 170.8"><defs><style>.cls-1,.cls-3{fill:none;}.cls-2{fill:#5e5e5e;}.cls-3{stroke:#5e5e5e;stroke-linecap:round;stroke-linejoin:round;stroke-width:0;}.cls-4{fill:#0f0f19;}</style></defs><title>VR2</title><path class="cls-1" d="M11.86,97.93c-.58-3.7-2.29-6-3.7-6.94a3,3,0,0,0-1.6-.55,1.92,1.92,0,0,0-.48.06h0c-1.94.5-2.82,5.44-2.52,9.73.19,2.69,1.11,5,2.48,6.13a2.89,2.89,0,0,0,2.2.74,3.22,3.22,0,0,0,2.12-1.39A10.45,10.45,0,0,0,11.86,97.93Z" transform="translate(0 0)"/><path class="cls-1" d="M19.48,74.89c2.38.48,7.94-6.66,9.17-11.75a4.51,4.51,0,0,0-.29-3.6,3.6,3.6,0,0,0-2.57-1.42A6.85,6.85,0,0,0,24.7,58a7.76,7.76,0,0,0-4.62,1.61,9.25,9.25,0,0,0-3.62,6.08C15.89,70,17.36,74.46,19.48,74.89Z" transform="translate(0 0)"/><path class="cls-1" d="M214.17,52.87c-1.86-1.4-11.06-7.91-22.73-9.13-14.56-1.53-43-.9-46.27,12.44S170,80.08,188.59,87l1,.39c3-2.33,6.15-4.91,9.08-7.65A53.18,53.18,0,0,0,214.17,52.87Z" transform="translate(0 0)"/><path class="cls-1" d="M26.69,91.63a3.38,3.38,0,0,0,2.44,1.23,3.19,3.19,0,0,0,2.27-1.18c2-2,3.27-5.91,3.13-9.42-.16-4.2-2.69-6.12-5-6.12h0c-2.28,0-5,2.92-5.28,7.11C24.08,86.49,25,89.86,26.69,91.63Z" transform="translate(0 0)"/><path class="cls-1" d="M31.22,62.36c-.85,5.2,11,9.88,18.19,11.83,7.65,2.09,21.17,4,25.85,1.35a32.64,32.64,0,0,0,6.3-4.77,21.37,21.37,0,0,1,4.18-3.24A16.79,16.79,0,0,1,90,65.87c-2.94-1-6-1.91-8.28-2.47l0-.09a1.87,1.87,0,0,1-1.2.28,7.2,7.2,0,0,0-3,.5l-.35.12a8.1,8.1,0,0,1-4.81.55c-.76-.18-4-1-7.69-2-6-1.6-13.41-3.59-14.66-3.85l-.19,0c-2.45-.51-4.07-.84-3.84-2a1.28,1.28,0,0,1,.7-.79,7.31,7.31,0,0,1,1.51-.62L39.74,54C38.89,54.39,32,57.4,31.22,62.36Z" transform="translate(0 0)"/><path class="cls-1" d="M79.39,92.2C83.5,93.59,90.56,87,92.54,84.07c1.43-2.14,1.69-4.34.75-6.17-1.11-2.16-3.76-3.52-7.09-3.63h-.51c-7.08,0-9.42,5.1-10.18,8.19C75.19,83.66,74.63,90.6,79.39,92.2Z" transform="translate(0 0)"/><path class="cls-1" d="M21.23,143.76c.27-.26.12-1.13-.08-2.24l0-.26c-.43-2.44-4.29-11.74-6.83-12.66h0a.58.58,0,0,0-.19,0,3,3,0,0,0-1.61.67,4.7,4.7,0,0,0-1.88,4.08c.25,5.44,7.14,10,9.29,10.46C20.6,143.93,21.06,143.93,21.23,143.76Z" transform="translate(0 0)"/><path class="cls-1" d="M31.85,149.07c-1.28-1.18-3.57-2.09-4-1.73-.11.09-.1.53.62,1.56l0,0c1,.47,2,.95,3.12,1.43l1.93.85A6.2,6.2,0,0,0,31.85,149.07Z" transform="translate(0 0)"/><path class="cls-1" d="M65.43,161.09c-2-1.64-4.32-2.12-5.26-1.62a.41.41,0,0,0-.23.42,3.49,3.49,0,0,0,1.81,2.16c2.14.71,4.28,1.38,6.41,2A12.91,12.91,0,0,0,65.43,161.09Z" transform="translate(0 0)"/><path class="cls-1" d="M104.49,168.87a23.13,23.13,0,0,0,6.21-2.48,13.7,13.7,0,0,0-3.36.66A5.57,5.57,0,0,0,104.49,168.87Z" transform="translate(0 0)"/><path class="cls-1" d="M10,133.35a5.24,5.24,0,0,1,2.1-4.55,2.94,2.94,0,0,1,2.31-.71c2.94,1.06,6.79,10.82,7.19,13.08l0,.26c.25,1.41.4,2.26-.08,2.73a1.2,1.2,0,0,1-.89.29,4.72,4.72,0,0,1-1-.12h0c2.22,1.34,4.79,2.72,7.81,4.17-.29-.54-.5-1.2-.07-1.57.86-.75,3.58.68,4.72,1.74,1.59,1.47,1.88,2.44,1.93,2.82,4,1.72,8.25,3.49,12.72,5.23l-.39-.62C42,155.2,35,149.35,34,142.67c-.37-2.56,0-4.48,1.25-5.71a5.38,5.38,0,0,1,4.13-1.38h0a6.43,6.43,0,0,1,1,.21A146.71,146.71,0,0,1,41.2,108c2.22-19.18,5.46-28.2,7.75-33.32-3.06-.86-19.36-5.76-18.28-12.37.74-4.52,5.94-7.4,8.07-8.4l-2.68-.43a53.5,53.5,0,0,1-15.68,1.09c-.95.19-12.94,3-16.42,22.34-3.3,18.37-4.47,41.18.35,50.74,2.16,4.28,4.24,7.87,8.22,11.46A10,10,0,0,1,10,133.35ZM29.56,75.59h0c2.53,0,5.33,2.08,5.51,6.65.14,3.65-1.21,7.69-3.29,9.83a3.82,3.82,0,0,1-2.64,1.35h0A4,4,0,0,1,26.28,92c-1.74-1.88-2.77-5.41-2.55-8.79.29-4.49,3.3-7.62,5.83-7.63h0ZM15.9,65.65a9.68,9.68,0,0,1,3.84-6.45,8.09,8.09,0,0,1,6.14-1.62,4.13,4.13,0,0,1,2.94,1.66,5,5,0,0,1,.37,4c-1.2,4.94-6.52,12.2-9.49,12.2a1.63,1.63,0,0,1-.33,0C16.72,74.89,15.36,69.82,15.9,65.65ZM8,107.68a3.53,3.53,0,0,1-2.27-.89c-1.5-1.26-2.48-3.63-2.68-6.51-.32-4.55.6-9.71,2.93-10.31h0a3.14,3.14,0,0,1,2.52.56c1.92,1.27,3.44,4.07,3.94,7.32A11.13,11.13,0,0,1,10.8,106a3.75,3.75,0,0,1-2.5,1.61Z" transform="translate(0 0)"/><path class="cls-1" d="M48.89,150.23c-.52-5.12-6.21-11.08-9.81-11.41l-.55,0a2.47,2.47,0,0,0-1.88.65c-.62.65-.81,1.82-.56,3.48.74,5,6.21,11.25,10.1,11.49a2.4,2.4,0,0,0,2-.67C48.81,153.06,49.06,151.87,48.89,150.23Z" transform="translate(0 0)"/><path class="cls-1" d="M115.86,79.33a9.18,9.18,0,0,1,1.23.63c-.15-.2-.33-.43-.56-.68A3.56,3.56,0,0,1,115.86,79.33Z" transform="translate(0 0)"/><path class="cls-1" d="M49.91,155.14c.64-.61.91-1.76.79-3.44-.54-7.88-6.66-15-11.36-15.57l-.38,0a4.67,4.67,0,0,0-3.29,1.23c-1.08,1.09-1.45,2.86-1.1,5.24,1,6.69,8.24,12.54,12.48,13.06A3.44,3.44,0,0,0,49.91,155.14ZM46.4,155h-.26c-4.18-.26-9.83-6.63-10.61-12-.27-1.84,0-3.16.71-3.94a3.31,3.31,0,0,1,2.88-.8c3.84.36,9.75,6.42,10.31,11.91.19,1.82-.11,3.15-.89,4A2.86,2.86,0,0,1,46.4,155Z" transform="translate(0 0)"/><path class="cls-1" d="M165.3,13.26c1.43,1.1,3.48,3.11,3.06,5.38-.61,3.29-4.7,5.84-12.16,7.57a110,110,0,0,0-31.72,13.54c-2.86,1.78-5.38,3.5-7.82,5.15C108.62,50.36,101,55.52,83.34,62l0-.1-.27.24a4.83,4.83,0,0,0-.4.37c5.94,1.56,16.39,5.29,16.5,5.33,14.18,4,33.77,6.08,40.74,6.15a34,34,0,0,1,21.22,7.49c7.8,6,10.43,15.2,11,17.46a2.8,2.8,0,0,1,.59-.06,174.5,174.5,0,0,0,15.93-10.71l-.39-.14c-19-7.06-47.67-17.72-44.1-32.13,1.6-6.45,8.39-10.73,20.19-12.71s23.82-.93,27.26-.57c11.24,1.18,20.23,7.14,22.87,9.05.31-1.5.51-2.79.63-3.8.88-7.3-2.63-11.21-7.49-16.61a174.62,174.62,0,0,0-13-12.38C184.65,12.47,172.78,12.41,165.3,13.26Z" transform="translate(0 0)"/><path class="cls-1" d="M101.24,44.37c-2,2-11.78,11.58-16.12,15.78A127.36,127.36,0,0,0,116,44c2.45-1.66,5-3.38,7.85-5.17A111.08,111.08,0,0,1,156,25.14c6.89-1.6,10.81-3.91,11.32-6.69.38-2-2.3-4.16-3.6-5a47.13,47.13,0,0,0-5.74,1.13l-6.81,1.73c-7.44,1.68-21,8.59-26.08,11.48-4.32,2.47-15.92,11.37-16,11.46a4,4,0,0,1-1.16.72c-.56.48-1.26,1-1.8,1.38-.35.25-.63.45-.75.56a3.42,3.42,0,0,1-1,.6c0,.13-.05.27-.09.4C104,43.6,103.15,44.72,101.24,44.37Z" transform="translate(0 0)"/><path class="cls-1" d="M185.08,13.47a37.23,37.23,0,0,1,8.64,3.6,16.25,16.25,0,0,0-5.26-5.8,53.81,53.81,0,0,0-9.91-5.11A17.1,17.1,0,0,1,185.08,13.47Z" transform="translate(0 0)"/><path class="cls-1" d="M161.17,1.82a31,31,0,0,1,4.26,1.73c2.34,1.16,7.49,4.65,7.17,5.34-.12.26-.29.32-4.52.35l-2.52,0c-1.74,0-8,1.16-11.38,1.76-1.3.23-2.16.38-2.36.41a2.25,2.25,0,0,0-1,.65,4.77,4.77,0,0,1-.92.68c-.56.29-5.49,1.74-7.35,2.2a1.7,1.7,0,0,1-1,1.17c-.09,0-9.74,4.5-14.76,7.67-3.92,2.48-15.24,10.69-18.67,13.2a1.71,1.71,0,0,1,.75,1c2.38-1.82,11.75-8.92,15.66-11.16,3.44-2,18-9.71,26.37-11.6l6.78-1.72c.15,0,12.81-3.64,26-.43-4-7.71-15.74-10.25-16.08-10.33C165.42,2.41,163.29,2.08,161.17,1.82Z" transform="translate(0 0)"/><path class="cls-1" d="M106.15,38.75l.08.09.12-.1Z" transform="translate(0 0)"/><path class="cls-1" d="M100.08,69.29h0c-1.93-.57-3.78-.86-4-.63a.27.27,0,0,0-.05.23c.07.74,1.28,2.22,3.4,3.51a64.39,64.39,0,0,0,12.41,5.7,13.88,13.88,0,0,0,4.27.66,14,14,0,0,0-2.71-2.2C112,75.76,103.36,71.07,100.08,69.29Z" transform="translate(0 0)"/><path class="cls-1" d="M104.09,40.43c.16-.14.42-.32.83-.62l.22-.16L85.25,35.28l-4.44-.88a10,10,0,0,1-3.09-1l-.36.3c4.24.94,25,5.53,25.6,5.71A1.78,1.78,0,0,1,104.09,40.43Z" transform="translate(0 0)"/><path class="cls-1" d="M51.67,57.94a7.63,7.63,0,0,0-.83,0c2.25.55,8.74,2.29,14.09,3.72,3.71,1,6.92,1.85,7.67,2a7.1,7.1,0,0,0,4.18-.52l.36-.13a8.15,8.15,0,0,1,3.48-.55c.41,0,.69-.22,1.15-.69a6.86,6.86,0,0,1,.58-.54c.51-.41,10.89-10.59,18-17.55L74,37h0L51.9,57.95Zm8.67-6.06.23-.13c3.28-1.78,19.67-10.67,20-10.82s.49-.23,4.69.89l.47.13-2.18,16L77.85,61,59.48,56.65Z" transform="translate(0 0)"/><path class="cls-1" d="M113.8,82.84a9.13,9.13,0,0,0,6.37,3.92.91.91,0,0,0,.73-.51c.17-.36.27-1.23-1-3-1.78-2.5-4.72-3.85-5.44-3.75a1.52,1.52,0,0,0-1,.91A2.47,2.47,0,0,0,113.8,82.84Z" transform="translate(0 0)"/><path class="cls-1" d="M84.49,42.77A34.65,34.65,0,0,0,80.94,42C79.82,42.57,67.89,49,61.33,52.6l-.58,3.21,16.94,4,4.83-2.63Z" transform="translate(0 0)"/><path class="cls-1" d="M74.17,36.5l26.58,6.77v0l.15-.14.3.08c1.09.27,1.57-.06,1.77-.34l-.38,0h0a1,1,0,0,1,0-1.92,2.24,2.24,0,0,0,.52-.1.68.68,0,0,0-.44-.38c-.55-.15-17.45-3.9-26.31-5.86l-.16,0a3.84,3.84,0,0,1-1.11.18h-.16a1.17,1.17,0,0,0-.37.33c-.61.84-.44,1.28-.44,1.28Z" transform="translate(0 0)"/><path class="cls-1" d="M172.25,100.89a1.89,1.89,0,0,0-.47.3,2.74,2.74,0,0,0-1,2.08l.11-.07A2.88,2.88,0,0,1,172.25,100.89Z" transform="translate(0 0)"/><path class="cls-1" d="M129.78,4.28c-.24.3-.41.51-.63.57-2.11.54-5.73,1.61-7.74,2.33a72.28,72.28,0,0,1,7.26,1.49c2.78.75,12,3.28,12.83,3.93a2.8,2.8,0,0,1,1.05,1.79c1.83-.48,6.51-1.83,7.05-2.11a4.37,4.37,0,0,0,.81-.61,2.63,2.63,0,0,1,1.34-.78c.18,0,1.13-.19,2.33-.4,3.62-.64,9.68-1.72,11.46-1.77l2.53,0c1.32,0,3,0,3.79-.09A33.18,33.18,0,0,0,165.18,4a31.11,31.11,0,0,0-7.68-2.61,83.32,83.32,0,0,0-27.06,2.12A5.78,5.78,0,0,0,129.78,4.28Z" transform="translate(0 0)"/><path class="cls-1" d="M120.59,7l-.05-.14c1.78-.69,6.1-2,8.49-2.6a2.52,2.52,0,0,0,.33-.38l.13-.16-.73.17a70.26,70.26,0,0,0-9.06,3Z" transform="translate(0 0)"/><path class="cls-1" d="M78.78,31.28l-.11.15a2,2,0,0,0-.25.46c0,.1,0,.2,0,.3a.5.5,0,0,0,.05.13.53.53,0,0,1,.08.28,14.42,14.42,0,0,0,2.52.7l4.45.88,20.26,4.46a2.21,2.21,0,0,1,.75-1.83c.1-.08,15-11,19.69-13.94,2.4-1.51,5.82-3.31,8.78-4.79-2.34-1.14-21.66-6.54-25.26-7.27-3.36,1.87-8,4.62-13.21,7.85-9.09,5.67-16.62,11.28-17.37,11.88a1.68,1.68,0,0,0-.45.59Z" transform="translate(0 0)"/><path class="cls-1" d="M135.42,17.72l-.13.19c3.16-1.58,5.71-2.76,5.76-2.78.33-.15.39-.34.41-.46a1.57,1.57,0,0,0-.64-1.2c-.59-.4-6.86-2.23-12.46-3.74A80,80,0,0,0,119.55,8a13.36,13.36,0,0,0-4.74.16,40,40,0,0,0-4.39,2.23C115.5,11.58,134,16.8,135.42,17.72Z" transform="translate(0 0)"/><path class="cls-1" d="M49.19,57.59,49,57.35a4.45,4.45,0,0,1,2.5-.52l.76-.72L51.84,56a9.81,9.81,0,0,0-4.67,1A10.56,10.56,0,0,0,49.19,57.59Z" transform="translate(0 0)"/><path class="cls-1" d="M191.6,113.58c-.82-6.93-2.3-19.49-2.65-22.31-.15.1-.29.21-.44.3-.93.56-2.88,1.93-5.14,3.51-3.94,2.76-8.4,5.89-9.77,6.37a2.29,2.29,0,0,0-1.54,1.33c1.75.63,2.2,4,2.71,7.9.1.76.2,1.53.32,2.3.55,3.73.9,9,1,11.1l2.94-1.5c1.09-.56,6.29-4.36,10.46-7.42l2.16-1.58Z" transform="translate(0 0)"/><path class="cls-1" d="M174,113.14c-.11-.77-.22-1.55-.32-2.32-.42-3.19-.9-6.79-2.12-7l.13.21c-.13.08-12.83,7.71-14.61,8.89-2.89,1.9-6.24,9.45-5,16,.61,3.1,1.81,5.17,3.48,6a4.83,4.83,0,0,0,4.28-.2c3.09-1.5,13.49-8.18,15.06-9.19l.11-.59C175,124.26,174.64,117.56,174,113.14Z" transform="translate(0 0)"/><path class="cls-1" d="M111.59,106.27a7.1,7.1,0,0,0-.75,0,5.15,5.15,0,0,0-3.44,1.21,6.89,6.89,0,0,0-2.22,4.47,8.53,8.53,0,0,0,2,5.77,4.9,4.9,0,0,0,3.55,1.68c4.28.16,5.83-4,6.06-6.15S115.74,106.7,111.59,106.27Z" transform="translate(0 0)"/><path class="cls-1" d="M108.53,137.69l-.64,0c-3.44,0-5.27,2.61-5.55,5.34a7.42,7.42,0,0,0,1.69,5.44,5.34,5.34,0,0,0,3.87,1.93c3.49.14,4.85-3.79,5.08-5.9a7.44,7.44,0,0,0-1.33-5.2A4.37,4.37,0,0,0,108.53,137.69Z" transform="translate(0 0)"/><path class="cls-1" d="M197.86,104.83c-.1-2-1-11.09-1.47-13.92-.32-2.13-.84-2.28-2-2.62l-.49-.15c-.65-.2-1.68.61-2.86,1.56-.48.39-1,.8-1.59,1.2.33,2.58,2.29,19.24,2.65,22.32,1.25-.91,2.25-1.63,2.79-2A7.76,7.76,0,0,0,197.86,104.83Z" transform="translate(0 0)"/><path class="cls-1" d="M121.39,153.73l.84-1.76.1-.26c.16-.4.52-1.33.4-1.49-.37,0-1.83,1.9-3,4.71a5.55,5.55,0,0,0-.58,2.8c.82-1.38,1.44-2.64,1.93-3.64l.19-.39Z" transform="translate(0 0)"/><path class="cls-1" d="M159,136.17l.1.18a14,14,0,0,1-5.94,1.69,6.73,6.73,0,0,1-1.2-.1c-2.29-.42-9.28-1.69-9-14.18.22-10.61,7.34-17,12.07-18a10.23,10.23,0,0,1,8.71,1.79l5.19-3.14a4.83,4.83,0,0,1,1.62-4.67,4,4,0,0,1,.5-.35c-.43-1.79-3-11.17-10.61-17a33,33,0,0,0-20.55-7.26c-6.13-.07-23.32-1.75-37.75-5.34,3.91,2.13,10.36,5.64,11.51,6.33a15,15,0,0,1,4,3.63c.6.43,8.06,5.83,10.29,7.3,1.61,1.06,9.79,6.88,12.52,17.37,2.6,10,1.52,27-4.74,37.06-5.74,9.25-11.93,10.69-13,10.88l-.72,1.52c2,.38,15.53,2.86,23,.55s15.66-4.83,22.71-23c-2.93,1.81-5.87,3.58-7.33,4.29A7.58,7.58,0,0,1,159,136.17Z" transform="translate(0 0)"/><path class="cls-1" d="M127.4,105.2s0,0,.08-.06c.46-.58.43-3.33.27-4.58-.22-1.66-1-4.1-1.75-4.1h0a.36.36,0,0,0-.21.15,6.71,6.71,0,0,0-.45,4.26C125.68,103.11,126.88,105.2,127.4,105.2Z" transform="translate(0 0)"/><path class="cls-1" d="M156.45,112c.57-.38,2.19-1.37,4.15-2.57-.93-.28-2.75-.44-5.15,1.3-4.64,3.35-7,8.11-7.09,14.57-.08,3.87.76,6.78,2.43,8.41a5.53,5.53,0,0,0,3.32,1.52c-1.47-1.2-2.54-3.28-3.09-6.13C149.6,121.89,153.35,114,156.45,112Z" transform="translate(0 0)"/><path class="cls-1" d="M121.58,136.39a1.5,1.5,0,0,0,1.17-.32c1.41-1,2.32-4.28,2.71-7,.33-2.26.34-5.38-.69-6.74a1.47,1.47,0,0,0-1-.63h-.18a2.15,2.15,0,0,0-1.31.54c-1.49,1.18-2.83,4-3.1,6.66C118.81,132.3,119.26,136,121.58,136.39Z" transform="translate(0 0)"/><path class="cls-1" d="M119.23,154.72c.93-2.26,2.7-5.28,3.62-5a.56.56,0,0,1,.37.29c.19.37,0,.94-.3,1.73,1.61-.4,7.17-2.31,12.28-10.54,6-9.64,7.25-26.72,4.68-36.63-2.68-10.29-10.71-16-12.29-17s-6.16-4.32-8.65-6.11A10.41,10.41,0,0,1,120.36,83c1.08,1.51,1.43,2.7,1,3.54a1.46,1.46,0,0,1-1.19.83h-.06a9.74,9.74,0,0,1-6.81-4.19,3,3,0,0,1-.33-2.92,2.33,2.33,0,0,1,.94-1.06,22.51,22.51,0,0,1-2.29-.51A65.11,65.11,0,0,1,99.1,72.89c-2.4-1.46-3.58-3.07-3.66-3.94a.78.78,0,0,1,.24-.69,1.27,1.27,0,0,1,.77-.2c-1.4-.49-3.3-1.14-5.35-1.82A14,14,0,0,0,86,68a21,21,0,0,0-4.07,3.16A33.08,33.08,0,0,1,75.53,76c-1.77,1-4.57,1.36-7.75,1.36a80.45,80.45,0,0,1-18.29-2.6c-2.28,5.07-5.52,14-7.75,33.24A143.83,143.83,0,0,0,41,136c4.6,1.75,9.78,8.37,10.28,15.66.13,1.87-.19,3.14-1,3.88a3.08,3.08,0,0,1-2.21.73,8.16,8.16,0,0,1-.87-.06l.55.85c4.06,1.56,8.26,3.08,12.47,4.49a2.71,2.71,0,0,1-.86-1.64,1,1,0,0,1,.52-.92c1.1-.58,3.52-.2,5.86,1.67A12.62,12.62,0,0,1,69,164.31c9.73,2.89,19.07,4.95,26.46,5.33a31.87,31.87,0,0,0,8.3-.59,5.7,5.7,0,0,1,3.48-2.53,11.89,11.89,0,0,1,4.41-.69,24,24,0,0,0,7.19-7.49C118.59,158,118.29,157,119.23,154.72ZM75,82.31c.83-3.32,3.39-8.86,11.25-8.6,3.53.12,6.36,1.59,7.57,3.93,1,2,.76,4.41-.78,6.73-1.9,2.86-8,8.57-12.4,8.57a4.33,4.33,0,0,1-1.38-.21C74.06,91,74.63,83.6,75,82.31Zm-14.21,20.4c-.22,0-.44,0-.67,0a4.64,4.64,0,0,1-3.22-1.9,10.38,10.38,0,0,1-1.75-7.51c.4-2.62,3.43-8.68,8.48-8.15a6.26,6.26,0,0,1,4.57,2.35A7.82,7.82,0,0,1,69.42,93C69,95.62,66.43,102.71,60.75,102.71Zm24.67,62.67a4.13,4.13,0,0,1-3,.86,22,22,0,0,1-2.25-.15c-3-.31-12-4.4-12.17-10.12-.08-3.34,1-5.09,2-6a4.1,4.1,0,0,1,3.08-1.16c2.91.31,6.31,4.07,8.09,6.29,2.47,3.09,4.51,6.63,4.75,8.23A2.3,2.3,0,0,1,85.41,165.38Zm13-38.31c-1.11,4.75-3.9,7.29-7.9,7.29a10.14,10.14,0,0,1-1.19-.07,12.61,12.61,0,0,1-8.61-5.2C79,126.74,78.09,124,78.46,122c.73-3.87,4.29-7.9,11.9-6.54a9.06,9.06,0,0,1,6.21,4.05A11.57,11.57,0,0,1,98.39,127.08Zm28.39,16.76c-1.76,3.83-2.71,5.3-3.43,5.3h-.1a.44.44,0,0,1-.3-.22c-.58-.95.81-6.42,1.09-7.39.32-1.12,2.22-5.31,3.64-4.91a.71.71,0,0,1,.46.41C128.67,138.18,127.68,141.89,126.78,143.84Zm3.93-17.4a12.82,12.82,0,0,1-.83,3.13c-.55,1.32-1.15,2-1.8,2H128a.88.88,0,0,1-.61-.34c-.58-.73-.44-2.45-.23-4,0-.12,0-.21,0-.28s.7-4.87,2.25-4.87h0a.92.92,0,0,1,.69.33C130.85,123.14,130.84,125.29,130.72,126.43Zm-5.37-30.16a.84.84,0,0,1,.61-.36h0c1.58,0,2.29,4.53,2.29,4.58.13.95.27,3.86-.31,4.86a1.16,1.16,0,0,1,.94-.59,1.25,1.25,0,0,1,.86.46,9.15,9.15,0,0,1,1.74,6c-.1,3.23-1.34,6-2.71,6h0a.94.94,0,0,1-.68-.33c-.88-.93-1.43-3.88-1.32-5.89.14-2.65.5-4.44,1-5.38a.66.66,0,0,1-.38.21h-.07c-1.12,0-2.31-2.84-2.62-4.79S124.72,97,125.34,96.27Zm-11.82,48.26c-.24,2.24-1.67,6.4-5.41,6.4h-.24a5.88,5.88,0,0,1-4.27-2.12,8,8,0,0,1-1.82-5.86c.32-3.06,2.59-6.19,6.8-5.81a4.9,4.9,0,0,1,3.48,1.78A7.9,7.9,0,0,1,113.52,144.54Zm3.83-31.29c-.25,2.33-1.89,6.65-6.36,6.65h-.27a5.43,5.43,0,0,1-3.94-1.86,9.13,9.13,0,0,1-2.14-6.17A7.49,7.49,0,0,1,107,107a5.89,5.89,0,0,1,4.6-1.29C116.19,106.19,117.6,110.86,117.35,113.25Zm1.26,15.62c.29-2.8,1.69-5.76,3.31-7a2.53,2.53,0,0,1,1.91-.64,2,2,0,0,1,1.38.84c1.14,1.5,1.16,4.68.8,7.16-.2,1.35-1,5.88-2.93,7.32a2.11,2.11,0,0,1-1.27.45l-.31,0C118.79,136.52,118.23,132.5,118.61,128.87Z" transform="translate(0 0)"/><path class="cls-1" d="M155.25,106.81c-3.41.72-11,6-11.2,17-.22,10.35,4.52,12.41,8.11,13.07a8.85,8.85,0,0,0,4.27-.54,5,5,0,0,1-1.35-.44l-.07,0h0a6.31,6.31,0,0,1-4.59-1.74c-1.78-1.74-2.68-4.79-2.6-8.82.14-6.64,2.53-11.55,7.32-15,3-2.17,5.21-1.59,6.08-1.21l1.51-.91A9.28,9.28,0,0,0,155.25,106.81Z" transform="translate(0 0)"/><path class="cls-1" d="M90.26,116a15.66,15.66,0,0,0-2.75-.26c-5.33,0-7.91,3.24-8.5,6.36-.34,1.8.5,4.41,2.14,6.65a12.07,12.07,0,0,0,8.23,5c5.83.67,7.81-4,8.47-6.77a11.11,11.11,0,0,0-1.74-7.15A8.53,8.53,0,0,0,90.26,116Z" transform="translate(0 0)"/><path class="cls-1" d="M73,149.39h-.24a3.65,3.65,0,0,0-2.41,1c-.88.81-1.9,2.43-1.83,5.56.13,5.32,8.91,9.29,11.68,9.58,2,.21,4,.29,4.8-.55a1.76,1.76,0,0,0,.35-1.56C84.92,160.45,77.65,149.88,73,149.39Z" transform="translate(0 0)"/><path class="cls-1" d="M127.53,137.15h-.07c-.74,0-2.42,2.91-2.9,4.54-.66,2.28-1.44,6.26-1.17,6.9.28-.08,1-.88,2.88-5,.93-2,1.76-5.47,1.35-6.34C127.6,137.2,127.57,137.16,127.53,137.15Z" transform="translate(0 0)"/><path class="cls-1" d="M63.53,85.67l-.55,0c-4.31,0-7,5.42-7.33,7.71a9.8,9.8,0,0,0,1.64,7.09,4.1,4.1,0,0,0,2.83,1.69c5.73.53,8.31-6.63,8.75-9.19a7.38,7.38,0,0,0-1.17-5.14A5.73,5.73,0,0,0,63.53,85.67Z" transform="translate(0 0)"/><path class="cls-1" d="M211.59,99.19c-1.47-1.22-4,.46-5.43,1.36l-.11.07c-1.4.91-6.87,5.76-6.92,5.81l-.23-.26a8.89,8.89,0,0,1-2.51,5.29c5,1.39,11.9,2.38,14.57,1.68,2.88-.74,4.64-1.46,4.88-5.15S213.42,100.73,211.59,99.19Z" transform="translate(0 0)"/><path class="cls-1" d="M129.44,122.57c-.75,0-1.58,3.25-1.7,4.38,0,.07,0,.17,0,.29-.1.74-.39,3,.12,3.62a.32.32,0,0,0,.23.14c.37.06.89-.57,1.33-1.65a12.15,12.15,0,0,0,.79-3c.14-1.37,0-3.13-.44-3.66A.36.36,0,0,0,129.44,122.57Z" transform="translate(0 0)"/><path class="cls-1" d="M128.53,116.43a.42.42,0,0,0,.28.16h0c.79,0,2.05-2.17,2.15-5.42a8.72,8.72,0,0,0-1.59-5.56.8.8,0,0,0-.46-.29h0c-.6,0-1.33,1.48-1.55,5.63C127.26,113,127.84,115.7,128.53,116.43Z" transform="translate(0 0)"/><path class="cls-1" d="M207.63,94.75a18.07,18.07,0,0,0,7-8.76c2.44-6.18-1.82-9.43-1.86-9.46-.69-.51-3.47,1.92-4.38,2.73l-.25.22c-1.32,1.15-10,7.23-11.85,8.53a4.26,4.26,0,0,1,1.16,2.74c.31,2,.87,7.22,1.21,10.79,1.39-1.06,6.57-5,8.36-6.36Z" transform="translate(0 0)"/><path class="cls-1" d="M216.16,48a54.27,54.27,0,0,1-16.69,32.53A163.23,163.23,0,0,1,174.13,99.3a2.71,2.71,0,0,1,.48.37c2-1.19,5.31-3.53,8.13-5.5,2.28-1.6,4.24-3,5.2-3.55a22.47,22.47,0,0,0,2.42-1.77c1.43-1.15,2.67-2.14,3.89-1.75l.46.14c.27.08.51.16.74.25l-.11-.15c.11-.07,10.69-7.47,12.1-8.7l.25-.22c2.3-2,4.47-3.74,5.77-2.78,1.73,1.29,4.43,5.19,2.23,10.76a19.27,19.27,0,0,1-7.41,9.25l-.57.42c-2,1.53-8.63,6.57-8.69,6.62l-.25-.32c.1,1.08.17,1.95.19,2.42,0,.1,0,.22,0,.33,1.46-1.28,5.28-4.62,6.49-5.41l.11-.07c1.62-1.06,4.65-3,6.75-1.28,1.56,1.31,4.32,4.61,4.62,8.48,1.48-4.28,3.87-13,4.95-26.71,1.4-17.8-2.12-29.22-5.75-36.76A17.18,17.18,0,0,1,216.16,48Z" transform="translate(0 0)"/><path class="cls-2" d="M49.44,150.17c-.56-5.48-6.47-11.55-10.31-11.91a3.31,3.31,0,0,0-2.88.8c-.74.78-1,2.11-.71,3.94.78,5.33,6.43,11.71,10.61,12h.26a2.86,2.86,0,0,0,2.14-.84C49.32,153.32,49.62,152,49.44,150.17Zm-3.26,4.25c-3.89-.24-9.36-6.47-10.1-11.49-.24-1.66-.05-2.83.56-3.48a2.47,2.47,0,0,1,1.88-.65l.55,0c3.6.33,9.29,6.29,9.81,11.41.17,1.65-.08,2.83-.74,3.52A2.4,2.4,0,0,1,46.18,154.42Z" transform="translate(0 0)"/><path class="cls-2" d="M19.37,75.43a1.63,1.63,0,0,0,.33,0c3,0,8.3-7.26,9.49-12.2a5,5,0,0,0-.37-4,4.13,4.13,0,0,0-2.94-1.66,8.09,8.09,0,0,0-6.14,1.62,9.68,9.68,0,0,0-3.84,6.45C15.36,69.82,16.72,74.89,19.37,75.43Zm-2.92-9.71a9.25,9.25,0,0,1,3.62-6.08A7.76,7.76,0,0,1,24.7,58a6.85,6.85,0,0,1,1.1.09,3.6,3.6,0,0,1,2.57,1.42,4.51,4.51,0,0,1,.29,3.6c-1.23,5.1-6.8,12.23-9.17,11.75C17.36,74.46,15.89,70,16.45,65.72Z" transform="translate(0 0)"/><line class="cls-3" x1="29.56" y1="75.6" x2="29.56" y2="75.6"/><path class="cls-2" d="M23.73,83.22c-.22,3.38.81,6.91,2.55,8.79a4,4,0,0,0,2.84,1.41h0a3.82,3.82,0,0,0,2.64-1.35c2.08-2.14,3.43-6.18,3.29-9.83-.18-4.57-3-6.65-5.51-6.65h0C27,75.6,24,78.73,23.73,83.22Zm5.83-7.07h0c2.27,0,4.8,1.91,5,6.12.14,3.51-1.15,7.38-3.13,9.42a3.19,3.19,0,0,1-2.27,1.18,3.38,3.38,0,0,1-2.44-1.23c-1.64-1.77-2.61-5.14-2.4-8.37C24.55,79.07,27.28,76.15,29.56,76.15Z" transform="translate(0 0)"/><path class="cls-2" d="M10.8,106a11.13,11.13,0,0,0,1.61-8.2c-.51-3.25-2-6-3.94-7.32A3.14,3.14,0,0,0,5.94,90h0c-2.33.6-3.25,5.76-2.93,10.31.2,2.88,1.18,5.25,2.68,6.51a3.53,3.53,0,0,0,2.27.89l.34,0A3.75,3.75,0,0,0,10.8,106Zm-2.56,1.06a2.89,2.89,0,0,1-2.2-.74c-1.37-1.14-2.29-3.43-2.48-6.12-.3-4.29.58-9.23,2.52-9.73h0a1.92,1.92,0,0,1,.48-.06,3,3,0,0,1,1.6.55c1.41.93,3.12,3.24,3.7,6.94a10.45,10.45,0,0,1-1.5,7.78A3.22,3.22,0,0,1,8.24,107.11Z" transform="translate(0 0)"/><path class="cls-2" d="M68.15,87.47a6.26,6.26,0,0,0-4.57-2.35c-5.05-.53-8.08,5.53-8.48,8.15a10.38,10.38,0,0,0,1.75,7.51,4.64,4.64,0,0,0,3.22,1.9c.23,0,.45,0,.67,0,5.69,0,8.23-7.09,8.68-9.67A7.82,7.82,0,0,0,68.15,87.47Zm.72,5.47c-.45,2.56-3,9.71-8.75,9.19a4.1,4.1,0,0,1-2.83-1.69,9.8,9.8,0,0,1-1.64-7.09c.35-2.29,3-7.71,7.33-7.71l.55,0a5.73,5.73,0,0,1,4.18,2.13A7.38,7.38,0,0,1,68.88,92.94Z" transform="translate(0 0)"/><path class="cls-2" d="M79.21,92.73a4.33,4.33,0,0,0,1.38.21c4.43,0,10.5-5.71,12.4-8.57,1.54-2.32,1.82-4.71.78-6.73-1.2-2.34-4-3.81-7.57-3.93C78.35,73.45,75.78,79,75,82.31,74.63,83.6,74.06,91,79.21,92.73ZM75.49,82.44c.77-3.09,3.11-8.19,10.18-8.19h.51c3.33.11,6,1.47,7.09,3.63.94,1.84.68,4-.75,6.17-2,3-9,9.52-13.15,8.13C74.63,90.6,75.19,83.66,75.49,82.44Z" transform="translate(0 0)"/><path class="cls-2" d="M81.16,155.13c-1.77-2.22-5.18-6-8.09-6.29A4.1,4.1,0,0,0,70,150c-1,.89-2.09,2.65-2,6,.15,5.72,9.2,9.81,12.17,10.12a22,22,0,0,0,2.25.15,4.13,4.13,0,0,0,3-.86,2.3,2.3,0,0,0,.5-2C85.67,161.75,83.63,158.21,81.16,155.13ZM85,165c-.81.84-2.78.76-4.8.55-2.76-.29-11.54-4.27-11.68-9.58-.08-3.13.95-4.75,1.83-5.56a3.65,3.65,0,0,1,2.41-1H73c4.63.49,11.9,11.06,12.35,14A1.76,1.76,0,0,1,85,165Z" transform="translate(0 0)"/><path class="cls-2" d="M90.36,115.48c-7.61-1.36-11.16,2.67-11.9,6.54-.37,1.95.51,4.72,2.24,7.08a12.61,12.61,0,0,0,8.61,5.2,10.14,10.14,0,0,0,1.19.07c4,0,6.78-2.54,7.9-7.29a11.57,11.57,0,0,0-1.82-7.55A9.06,9.06,0,0,0,90.36,115.48ZM97.85,127c-.66,2.82-2.64,7.44-8.47,6.77a12.07,12.07,0,0,1-8.23-5c-1.64-2.23-2.48-4.84-2.14-6.65.59-3.12,3.17-6.36,8.5-6.36a15.66,15.66,0,0,1,2.75.26,8.53,8.53,0,0,1,5.85,3.81A11.11,11.11,0,0,1,97.85,127Z" transform="translate(0 0)"/><path class="cls-2" d="M111.65,105.72A5.89,5.89,0,0,0,107,107a7.49,7.49,0,0,0-2.41,4.86,9.13,9.13,0,0,0,2.14,6.17,5.43,5.43,0,0,0,3.94,1.86H111c4.47,0,6.12-4.32,6.36-6.65S116.19,106.19,111.65,105.72Zm5.15,7.47c-.23,2.2-1.78,6.32-6.06,6.15a4.9,4.9,0,0,1-3.55-1.68,8.53,8.53,0,0,1-2-5.77,6.89,6.89,0,0,1,2.22-4.47,5.15,5.15,0,0,1,3.44-1.21,7.1,7.1,0,0,1,.75,0C115.74,106.7,117,111,116.8,113.19Z" transform="translate(0 0)"/><path class="cls-2" d="M108.58,137.14c-4.21-.38-6.48,2.75-6.8,5.81a8,8,0,0,0,1.82,5.86,5.88,5.88,0,0,0,4.27,2.12h.24c3.74,0,5.18-4.16,5.41-6.4a7.9,7.9,0,0,0-1.46-5.61A4.9,4.9,0,0,0,108.58,137.14Zm4.39,7.34c-.22,2.11-1.59,6-5.08,5.9a5.34,5.34,0,0,1-3.87-1.93,7.42,7.42,0,0,1-1.69-5.44c.29-2.73,2.11-5.34,5.55-5.34l.64,0a4.37,4.37,0,0,1,3.11,1.58A7.44,7.44,0,0,1,113,144.48Z" transform="translate(0 0)"/><path class="cls-2" d="M121.5,136.93l.31,0a2.11,2.11,0,0,0,1.27-.45c1.94-1.44,2.73-6,2.93-7.32.36-2.48.34-5.66-.8-7.16a2,2,0,0,0-1.38-.84,2.53,2.53,0,0,0-1.91.64c-1.62,1.28-3,4.24-3.31,7C118.23,132.5,118.79,136.52,121.5,136.93Zm-2.33-8c.28-2.62,1.61-5.49,3.1-6.66a2.15,2.15,0,0,1,1.31-.54h.18a1.47,1.47,0,0,1,1,.63c1,1.37,1,4.49.69,6.74-.39,2.68-1.3,5.92-2.71,7a1.5,1.5,0,0,1-1.17.32C119.26,136,118.81,132.3,119.16,128.93Z" transform="translate(0 0)"/><path class="cls-2" d="M127.4,105.75h.07a.66.66,0,0,0,.38-.21c-.55.94-.9,2.73-1,5.38-.11,2,.44,5,1.32,5.89a.94.94,0,0,0,.68.33h0c1.37,0,2.61-2.73,2.71-6a9.15,9.15,0,0,0-1.74-6,1.25,1.25,0,0,0-.86-.46,1.16,1.16,0,0,0-.94.59c.58-1,.44-3.91.31-4.86,0,0-.71-4.58-2.29-4.58h0a.84.84,0,0,0-.61.36c-.62.77-.86,2.79-.56,4.7S126.28,105.76,127.4,105.75Zm1.51-.44h0a.8.8,0,0,1,.46.29,8.72,8.72,0,0,1,1.59,5.56c-.1,3.26-1.36,5.42-2.15,5.42h0a.42.42,0,0,1-.28-.16c-.7-.73-1.28-3.45-1.17-5.48C127.59,106.8,128.31,105.32,128.92,105.32Zm-3.14-8.7a.36.36,0,0,1,.21-.15h0c.7,0,1.52,2.43,1.75,4.1.17,1.25.19,4-.27,4.58,0,.06-.07.06-.08.06-.52,0-1.71-2.09-2.07-4.32A6.71,6.71,0,0,1,125.77,96.62Z" transform="translate(0 0)"/><path class="cls-2" d="M127.68,136.62c-1.42-.41-3.32,3.79-3.64,4.91-.28,1-1.67,6.44-1.09,7.39a.44.44,0,0,0,.3.22h.1c.72,0,1.68-1.48,3.43-5.3.89-1.95,1.89-5.65,1.35-6.8A.71.71,0,0,0,127.68,136.62Zm-1.4,7c-1.88,4.09-2.6,4.9-2.88,5-.27-.64.51-4.62,1.17-6.9.47-1.63,2.15-4.54,2.9-4.54h.07s.07,0,.1.12C128,138.13,127.21,141.57,126.28,143.61Z" transform="translate(0 0)"/><path class="cls-2" d="M129.44,122h0c-1.56,0-2.25,4.82-2.25,4.87s0,.16,0,.28c-.21,1.59-.34,3.31.23,4a.88.88,0,0,0,.61.34h.1c.65,0,1.26-.67,1.8-2a12.82,12.82,0,0,0,.83-3.13c.12-1.15.13-3.29-.58-4.09A.92.92,0,0,0,129.44,122Zm.72,4.36a12.15,12.15,0,0,1-.79,3c-.44,1.07-1,1.7-1.33,1.65a.32.32,0,0,1-.23-.14c-.51-.64-.21-2.89-.12-3.62,0-.12,0-.22,0-.29.12-1.12.95-4.37,1.7-4.37a.36.36,0,0,1,.28.14C130.2,123.25,130.31,125,130.16,126.38Z" transform="translate(0 0)"/><path class="cls-2" d="M83.54,57.93l2.18-16-.47-.13c-4.2-1.12-4.51-1-4.69-.89s-16.7,9-20,10.82l-.23.13-.86,4.77L77.85,61ZM60.75,55.81l.58-3.21C67.89,49,79.82,42.57,80.94,42a34.65,34.65,0,0,1,3.55.79l-2,14.45-4.83,2.63Z" transform="translate(0 0)"/><path class="cls-4" d="M76.2,34.1c.14-.13.51-.44,1.15-1a.63.63,0,0,1-.12-.5l0-.21a6.17,6.17,0,0,1,.17-1.12l-.13.07c-2.23,1.86-2.48,2.1-2.55,2.17a.5.5,0,0,0-.14.36.67.67,0,0,0,.26.4A3.21,3.21,0,0,0,76.2,34.1Z" transform="translate(0 0)"/><path class="cls-2" d="M215,38.76l-.24.14c-1.45-2.94-3.74-5.5-6.33-8.38a174.22,174.22,0,0,0-13-12.39,16,16,0,0,0-6.29-7.77C183.88,6.77,174.73,3,167.8,1.7l-.08.43.07-.43C155.28-.48,144.34-1,128.48,2.87a71.45,71.45,0,0,0-11.31,3.92h0a9.93,9.93,0,0,0-2.68.33c-1.46.44-9.73,5.07-18.6,10.6-9.14,5.7-16.71,11.35-17.47,11.95a2.81,2.81,0,0,0-.82,1.07A1.16,1.16,0,0,0,77,31c-2.44,2-2.53,2.14-2.61,2.23a1,1,0,0,0-.25.72v0a2.3,2.3,0,0,0-.48.48,2.79,2.79,0,0,0-.65,2L53.27,55.13a7.92,7.92,0,0,0-1.34-.19c-3.73-.63-12.21-2-15.81-2.61l-.11,0-.11,0a51.67,51.67,0,0,1-15.5,1.08h-.13a16.86,16.86,0,0,0-7.34,3.77c-3.51,2.9-8.1,8.64-10.05,19.48-3.33,18.55-4.49,41.65.45,51.44,4.39,8.7,8.45,14.6,27.79,23.25,19.64,8.78,46.82,18.49,64.22,19.38q1,.05,2,.05c16.37,0,22-10.73,24.53-15.84,2.57.5,15.75,2.84,23.38.49,7.39-2.28,16.58-5.11,23.93-25,3.32-2.08,6.26-4,6.5-4.13l.2-.13.17-.85,3.46-1.77c1.17-.6,6.18-4.27,10.61-7.51,2.25-1.65,4.2-3.07,5.16-3.74a52.78,52.78,0,0,0,13.24,2.17,11.23,11.23,0,0,0,2.67-.26c2.4-.62,4.37-1.35,5.25-3.77l.17.08c.19-.38,4.7-9.51,6.33-30.33C224.67,58.6,219.21,46.21,215,38.76ZM189.63,87.38l-1-.39C170,80.08,141.85,69.62,145.18,56.18s31.71-14,46.27-12.44c11.67,1.23,20.86,7.73,22.73,9.13a53.18,53.18,0,0,1-15.46,26.87C195.78,82.48,192.66,85.05,189.63,87.38Zm17.94-56.11c4.86,5.4,8.38,9.3,7.49,16.61-.12,1-.32,2.29-.63,3.8-2.64-1.91-11.63-7.87-22.87-9.05-3.44-.36-15.58-1.39-27.26.57s-18.59,6.25-20.19,12.71C140.54,70.31,169.22,81,188.21,88l.39.14a174.5,174.5,0,0,1-15.93,10.71,2.8,2.8,0,0,0-.59.06c-.55-2.26-3.18-11.49-11-17.46A34,34,0,0,0,139.88,74c-7-.08-26.56-2.2-40.74-6.15-.11,0-10.55-3.78-16.5-5.33a4.83,4.83,0,0,1,.4-.37l.27-.24,0,.1c17.68-6.48,25.28-11.63,33.32-17.09,2.44-1.66,5-3.37,7.82-5.15A110,110,0,0,1,156.2,26.21c7.46-1.73,11.55-4.27,12.16-7.57.42-2.27-1.63-4.28-3.06-5.38,7.48-.85,19.35-.79,29.27,5.63A174.62,174.62,0,0,1,207.57,31.28Zm-36.7,71.93-.11.07a2.74,2.74,0,0,1,1-2.08,1.89,1.89,0,0,1,.47-.3A2.88,2.88,0,0,0,170.87,103.2ZM114.48,79.53c.71-.11,3.65,1.25,5.44,3.75,1.25,1.75,1.15,2.62,1,3a.91.91,0,0,1-.73.51,9.13,9.13,0,0,1-6.37-3.92,2.47,2.47,0,0,1-.3-2.4A1.52,1.52,0,0,1,114.48,79.53Zm1.39-.2a3.56,3.56,0,0,0,.67-.06c.23.25.41.48.56.68A9.18,9.18,0,0,0,115.86,79.33Zm-4.07-1.22a64.39,64.39,0,0,1-12.41-5.7c-2.12-1.29-3.33-2.77-3.4-3.51a.27.27,0,0,1,.05-.23c.26-.23,2.11.06,4,.63h0c3.28,1.78,11.91,6.48,13.26,7.28a14,14,0,0,1,2.71,2.2A13.88,13.88,0,0,1,111.79,78.11Zm-37-44.57c.06-.08.32-.31,2.55-2.17l.13-.07a6.17,6.17,0,0,0-.17,1.12l0,.21a.63.63,0,0,0,.12.5c-.64.54-1,.85-1.15,1a3.21,3.21,0,0,1-1.34.21.67.67,0,0,1-.26-.4A.5.5,0,0,1,74.74,33.54Zm3-.11a10,10,0,0,0,3.09,1l4.44.88,19.89,4.38-.22.16c-.41.29-.66.48-.83.62a1.78,1.78,0,0,0-1.13-1c-.61-.17-21.36-4.77-25.6-5.71Zm28.42,5.31h.21l-.12.1Zm-2,4.18c0-.13.06-.27.09-.4a3.42,3.42,0,0,0,1-.6c.11-.11.4-.31.75-.56.54-.39,1.24-.9,1.8-1.38a4,4,0,0,0,1.16-.72c.12-.09,11.71-9,16-11.46,5.06-2.89,18.64-9.8,26.08-11.48l6.81-1.73a47.13,47.13,0,0,1,5.74-1.13c1.3.81,4,2.94,3.6,5-.51,2.78-4.43,5.09-11.32,6.69A111.08,111.08,0,0,0,123.9,38.82C121,40.61,118.49,42.33,116,44A127.36,127.36,0,0,1,85.12,60.15c4.34-4.21,14.08-13.78,16.12-15.78C103.15,44.72,104,43.6,104.17,42.92Zm84.29-31.65a16.25,16.25,0,0,1,5.26,5.8,37.23,37.23,0,0,0-8.64-3.6,17.1,17.1,0,0,0-6.53-7.31A53.81,53.81,0,0,1,188.46,11.27Zm-4.78,1.84c-13.23-3.21-25.9.38-26,.43l-6.78,1.72c-8.37,1.89-22.93,9.63-26.37,11.6-3.91,2.23-13.28,9.34-15.66,11.16a1.71,1.71,0,0,0-.75-1c3.43-2.5,14.75-10.72,18.67-13.2,5-3.17,14.67-7.63,14.76-7.67a1.7,1.7,0,0,0,1-1.17c1.86-.46,6.79-1.91,7.35-2.2a4.77,4.77,0,0,0,.92-.68,2.25,2.25,0,0,1,1-.65c.2,0,1.06-.18,2.36-.41,3.37-.6,9.64-1.71,11.38-1.76l2.52,0c4.23,0,4.4-.09,4.52-.35.32-.69-4.83-4.18-7.17-5.34a31,31,0,0,0-4.26-1.73c2.12.26,4.25.59,6.43,1C167.94,2.86,179.67,5.4,183.68,13.11ZM157.5,1.43A31.11,31.11,0,0,1,165.18,4a33.18,33.18,0,0,1,6.68,4.56c-.74.06-2.47.08-3.79.09l-2.53,0c-1.78,0-7.84,1.12-11.46,1.77-1.2.21-2.14.38-2.33.4a2.63,2.63,0,0,0-1.34.78,4.37,4.37,0,0,1-.81.61c-.55.28-5.22,1.64-7.05,2.11a2.8,2.8,0,0,0-1.05-1.79c-.83-.65-10-3.18-12.83-3.93a72.28,72.28,0,0,0-7.26-1.49c2-.71,5.63-1.79,7.74-2.33.22-.06.39-.27.63-.57a5.78,5.78,0,0,1,.65-.73A83.32,83.32,0,0,1,157.5,1.43ZM128.75,3.95l.73-.17-.13.16a2.52,2.52,0,0,1-.33.38c-2.39.61-6.71,1.9-8.49,2.6l.05.14-.9-.12A70.26,70.26,0,0,1,128.75,3.95ZM114.81,8.19A13.36,13.36,0,0,1,119.55,8a80,80,0,0,1,8.81,1.7c5.6,1.52,11.87,3.35,12.46,3.74a1.57,1.57,0,0,1,.64,1.2c0,.13-.07.31-.41.46,0,0-2.6,1.2-5.76,2.78l.13-.19c-1.37-.93-19.92-6.15-25-7.31A40,40,0,0,1,114.81,8.19ZM96.48,18.67c5.18-3.23,9.86-6,13.21-7.85,3.59.73,22.91,6.13,25.26,7.27-3,1.48-6.38,3.28-8.78,4.79-4.65,2.94-19.58,13.86-19.69,13.94a2.21,2.21,0,0,0-.75,1.83L85.47,34.19,81,33.31a14.42,14.42,0,0,1-2.52-.7.53.53,0,0,0-.08-.28.5.5,0,0,1-.05-.13c0-.1,0-.19,0-.3a2,2,0,0,1,.25-.46l.11-.15-.12-.14a1.68,1.68,0,0,1,.45-.59C79.86,29.95,87.38,24.34,96.48,18.67ZM74.55,35.11a1.17,1.17,0,0,1,.37-.33h.16a3.84,3.84,0,0,0,1.11-.18l.16,0c8.86,2,25.76,5.71,26.31,5.86a.68.68,0,0,1,.44.38,2.24,2.24,0,0,1-.52.1,1,1,0,0,0,0,1.92h0l.38,0c-.2.28-.68.62-1.77.34l-.3-.08-.15.14v0L74.17,36.5l-.06-.1S73.94,36,74.55,35.11ZM74,37h0l26.3,6.69c-7.08,7-17.46,17.14-18,17.55a6.86,6.86,0,0,0-.58.54c-.46.47-.74.72-1.15.69a8.15,8.15,0,0,0-3.48.55l-.36.13a7.1,7.1,0,0,1-4.18.52c-.75-.18-4-1-7.67-2C59.58,60.24,53.09,58.5,50.84,58a7.63,7.63,0,0,1,.83,0h.23ZM52.24,56.11l-.76.72a4.45,4.45,0,0,0-2.5.52l.21.24a10.56,10.56,0,0,1-2-.57,9.81,9.81,0,0,1,4.67-1Zm-5.58-.06a1.28,1.28,0,0,0-.7.79c-.23,1.17,1.39,1.5,3.84,2l.19,0c1.25.26,8.68,2.25,14.66,3.85,3.72,1,6.93,1.86,7.69,2a8.1,8.1,0,0,0,4.81-.55l.35-.12a7.2,7.2,0,0,1,3-.5,1.87,1.87,0,0,0,1.2-.28l0,.09C83.93,64,87,64.91,90,65.87a16.79,16.79,0,0,0-4.21,1.65,21.37,21.37,0,0,0-4.18,3.24,32.64,32.64,0,0,1-6.3,4.77c-4.69,2.6-18.2.73-25.85-1.35-7.16-1.95-19-6.63-18.19-11.83.81-5,7.67-8,8.52-8.33l8.43,1.4A7.31,7.31,0,0,0,46.66,56.05ZM4.32,127.61C-.5,118.05.67,95.24,4,76.87,7.44,57.56,19.44,54.72,20.38,54.53a53.5,53.5,0,0,0,15.68-1.09l2.68.43c-2.12,1-7.33,3.89-8.07,8.4C29.59,68.88,45.89,73.78,49,74.63c-2.3,5.12-5.54,14.14-7.75,33.32a146.71,146.71,0,0,0-.8,27.84,6.43,6.43,0,0,0-1-.21h0A5.38,5.38,0,0,0,35.29,137c-1.2,1.22-1.62,3.14-1.25,5.71,1,6.68,8,12.53,12.46,13.43l.39.62c-4.48-1.73-8.77-3.5-12.72-5.23-.05-.39-.35-1.36-1.93-2.82-1.15-1.06-3.86-2.49-4.72-1.74-.43.37-.21,1,.07,1.57-3-1.46-5.6-2.84-7.81-4.17h0a4.72,4.72,0,0,0,1,.12,1.2,1.2,0,0,0,.89-.29c.48-.47.33-1.32.08-2.73l0-.26c-.4-2.27-4.25-12-7.19-13.08a2.94,2.94,0,0,0-2.31.71,5.24,5.24,0,0,0-2.1,4.55,10,10,0,0,0,2.5,5.73C8.57,135.48,6.48,131.89,4.32,127.61Zm30.26,15c-.35-2.38,0-4.15,1.1-5.24A4.67,4.67,0,0,1,39,136.12l.38,0c4.7.61,10.81,7.69,11.36,15.57.12,1.67-.15,2.83-.79,3.44a3.44,3.44,0,0,1-2.85.51C42.82,155.13,35.56,149.28,34.58,142.59Zm-24-9.27a4.7,4.7,0,0,1,1.88-4.08,3,3,0,0,1,1.61-.67.58.58,0,0,1,.19,0h0c2.54.92,6.4,10.22,6.83,12.66l0,.26c.2,1.1.35,2,.08,2.24s-.63.18-1.35,0C17.74,143.33,10.84,138.76,10.6,133.32Zm17.86,15.6,0,0c-.72-1-.72-1.46-.62-1.56.41-.36,2.71.55,4,1.73a6.2,6.2,0,0,1,1.65,2.13l-1.93-.85C30.49,149.87,29.46,149.39,28.46,148.92Zm31.48,11a.41.41,0,0,1,.23-.42c.93-.5,3.21,0,5.26,1.62a12.91,12.91,0,0,1,2.73,3c-2.12-.64-4.26-1.31-6.41-2A3.49,3.49,0,0,1,59.94,159.89Zm44.55,9a5.57,5.57,0,0,1,2.86-1.82,13.7,13.7,0,0,1,3.36-.66A23.13,23.13,0,0,1,104.49,168.87Zm7.1-3a11.89,11.89,0,0,0-4.41.69A5.7,5.7,0,0,0,103.7,169a31.87,31.87,0,0,1-8.3.59C88,169.26,78.68,167.2,69,164.31a12.62,12.62,0,0,0-3.18-3.65c-2.34-1.87-4.77-2.26-5.86-1.67a1,1,0,0,0-.52.92,2.71,2.71,0,0,0,.86,1.64c-4.21-1.42-8.41-2.94-12.47-4.49l-.55-.85a8.16,8.16,0,0,0,.87.06,3.08,3.08,0,0,0,2.21-.73c.78-.74,1.09-2,1-3.88-.5-7.3-5.68-13.92-10.28-15.66a143.83,143.83,0,0,1,.78-28C44,88.81,47.21,79.85,49.5,74.78a80.45,80.45,0,0,0,18.29,2.6c3.18,0,6-.38,7.75-1.36a33.08,33.08,0,0,0,6.4-4.84A21,21,0,0,1,86,68a14,14,0,0,1,5.09-1.77c2,.68,3.94,1.33,5.35,1.82a1.27,1.27,0,0,0-.77.2.78.78,0,0,0-.24.69c.08.87,1.26,2.47,3.66,3.94a65.11,65.11,0,0,0,12.55,5.76,22.51,22.51,0,0,0,2.29.51,2.33,2.33,0,0,0-.94,1.06,3,3,0,0,0,.33,2.92,9.74,9.74,0,0,0,6.81,4.19h.06a1.46,1.46,0,0,0,1.19-.83c.39-.84,0-2-1-3.54a10.41,10.41,0,0,0-1.41-1.58c2.48,1.79,7,5,8.65,6.11s9.61,6.75,12.29,17c2.58,9.91,1.31,27-4.68,36.63-5.12,8.24-10.67,10.15-12.28,10.54.31-.79.49-1.37.3-1.73a.56.56,0,0,0-.37-.29c-.92-.24-2.7,2.78-3.62,5s-.64,3.29-.45,3.63A24,24,0,0,1,111.59,165.84Zm7.57-8.11a5.55,5.55,0,0,1,.58-2.8c1.15-2.81,2.61-4.67,3-4.71.13.17-.24,1.1-.4,1.49l-.1.26-.84,1.76-.11,0-.19.39C120.61,155.09,120,156.35,119.16,157.73ZM145,154.39c-7.48,2.3-21-.17-23-.55l.72-1.52c1.07-.18,7.26-1.63,13-10.87,6.26-10.08,7.34-27.09,4.74-37.06C137.69,93.9,129.51,88.08,127.9,87c-2.23-1.47-9.7-6.86-10.29-7.3a15,15,0,0,0-4-3.63c-1.16-.69-7.6-4.2-11.51-6.33,14.43,3.58,31.62,5.27,37.75,5.34a33,33,0,0,1,20.55,7.26C168,88.2,170.6,97.58,171,99.37a4,4,0,0,0-.5.35,4.83,4.83,0,0,0-1.62,4.67l-5.19,3.14a10.23,10.23,0,0,0-8.71-1.79c-4.74,1-11.85,7.43-12.07,18-.26,12.49,6.72,13.76,9,14.18a6.73,6.73,0,0,0,1.2.1,14,14,0,0,0,5.94-1.69l-.1-.18a7.58,7.58,0,0,0,1.34-.5c1.45-.7,4.4-2.47,7.33-4.29C160.62,149.57,152.31,152.13,145,154.39Zm6-25.31c.56,2.84,1.62,4.92,3.09,6.13a5.53,5.53,0,0,1-3.32-1.52c-1.67-1.63-2.51-4.54-2.43-8.41.13-6.46,2.45-11.22,7.09-14.57,2.41-1.74,4.23-1.58,5.15-1.3-2,1.2-3.58,2.19-4.15,2.57C153.35,114,149.6,121.89,151,129.08Zm10.19-20c-.86-.38-3.08-1-6.08,1.21-4.79,3.46-7.19,8.37-7.32,15-.08,4,.82,7.07,2.6,8.82a6.31,6.31,0,0,0,4.59,1.74h0l.07,0a5,5,0,0,0,1.35.44,8.85,8.85,0,0,1-4.27.54c-3.58-.65-8.33-2.72-8.11-13.07.23-11,7.79-16.26,11.2-17a9.28,9.28,0,0,1,7.46,1.33Zm-1.35,25.63a4.83,4.83,0,0,1-4.28.2c-1.67-.83-2.88-2.91-3.48-6-1.28-6.52,2.08-14.06,5-16,1.79-1.18,14.49-8.82,14.61-8.89l-.13-.21c1.22.23,1.7,3.82,2.12,7,.1.77.2,1.55.32,2.32.66,4.42,1,11.13,1.05,11.77l-.11.59C173.35,126.5,162.95,133.18,159.86,134.68Zm29.64-19.53c-4.18,3.05-9.38,6.86-10.46,7.42l-2.94,1.5c-.12-2-.46-7.37-1-11.1-.11-.76-.22-1.54-.32-2.3-.51-3.87-1-7.26-2.71-7.9a2.29,2.29,0,0,1,1.54-1.33c1.37-.48,5.84-3.61,9.77-6.37,2.26-1.58,4.21-3,5.14-3.51.15-.09.29-.2.44-.3.35,2.82,1.84,15.38,2.65,22.31h.06Zm2.62-1.91c-.36-3.08-2.32-19.73-2.65-22.32.56-.4,1.1-.82,1.59-1.2,1.19-1,2.21-1.77,2.86-1.56l.49.15c1.14.33,1.66.48,2,2.62.43,2.83,1.37,11.91,1.47,13.92a7.76,7.76,0,0,1-3,6.4C194.36,111.61,193.37,112.33,192.12,113.23Zm5.36-22.49A4.26,4.26,0,0,0,196.31,88c1.86-1.3,10.53-7.38,11.85-8.53l.25-.22c.92-.8,3.69-3.24,4.38-2.73,0,0,4.3,3.29,1.86,9.46a18.07,18.07,0,0,1-7,8.76l-.58.43c-1.78,1.33-7,5.3-8.36,6.36C198.35,98,197.78,92.77,197.48,90.75ZM211,113.14c-2.67.69-9.6-.29-14.57-1.68a8.89,8.89,0,0,0,2.51-5.29l.23.26c.06,0,5.52-4.9,6.92-5.81l.11-.07c1.38-.9,4-2.58,5.43-1.36,1.84,1.53,4.48,5.14,4.24,8.8S213.83,112.4,211,113.14Zm10.92-33c-1.08,13.74-3.47,22.43-4.95,26.71-.3-3.87-3.06-7.18-4.62-8.48-2.1-1.76-5.12.22-6.75,1.28l-.11.07c-1.21.79-5,4.13-6.49,5.41,0-.11,0-.22,0-.33,0-.47-.09-1.34-.19-2.42l.25.32c.07-.05,6.65-5.09,8.69-6.62l.57-.42a19.27,19.27,0,0,0,7.41-9.25c2.2-5.56-.5-9.47-2.23-10.76-1.3-1-3.47.77-5.77,2.78l-.25.22c-1.41,1.23-12,8.62-12.1,8.7l.11.15c-.23-.09-.47-.18-.74-.25l-.46-.14c-1.23-.39-2.46.6-3.89,1.75a22.47,22.47,0,0,1-2.42,1.77c-1,.58-2.93,2-5.2,3.55-2.82,2-6.16,4.32-8.13,5.5a2.71,2.71,0,0,0-.48-.37,163.23,163.23,0,0,0,25.34-18.76A54.27,54.27,0,0,0,216.16,48a17.18,17.18,0,0,0,0-4.67C219.75,50.9,223.27,62.32,221.87,80.12Z" transform="translate(0 0)"/></svg>