<svg id="Layer_1" data-name="Layer 1" xmlns="http://www.w3.org/2000/svg" viewBox="0 0 725.09 447.59"><defs><style>.cls-1{fill:#fafafa;}.cls-2{fill:#5e5e5e;}.cls-3{fill:#5e5e60;}</style></defs><title>VR_EXPAND_BIG</title><path class="cls-1" d="M375,127.66v12.85a10.83,10.83,0,1,1-21.67,0V127.65h-1.1q-13.9,0-27.8,0c-10.29,0-20.91,0-31.4,0a104,104,0,0,1,50.46,48.63A101.23,101.23,0,0,1,353.89,222v.12l-.05.1C350,229.59,346,237,342,244.1c-2.49,4.5-5.05,9.15-7.54,13.77.87-.47,1.74-1,2.59-1.44,4.56-2.58,9.26-5.24,14.67-4.86a8.57,8.57,0,0,1,5.82,3.53,10.58,10.58,0,0,1,1.91,7.39h6.13a10.61,10.61,0,0,1,1.92-7.4,8.55,8.55,0,0,1,5.77-3.52c5.44-.37,10.15,2.28,14.71,4.86.84.48,1.71,1,2.57,1.43l-2.9-5.32c-4.94-9.07-10.06-18.44-15.15-27.62-.14-.29-.28-.55-.42-.81a6.89,6.89,0,0,1-1-2.95c.14-26.32,10.44-52,28.25-70.38A103.77,103.77,0,0,1,432,127.61l-26,0Z" transform="translate(0 0)"/><path class="cls-1" d="M674.43,162.94c.22,22.11.18,44.59.15,66.33,0,17.63-.05,35.85.05,53.78-.16,3.75,2.58,5.71,8.6,6.2a10.81,10.81,0,0,0,2.84-.1c4-.73,6.16-3.43,5.73-7.05V163c.28-3.15-1.77-6.72-5.28-7.09s-7.59-.62-10.19,1.78a11.75,11.75,0,0,1-1.1.95c-.24.17-.48.39-.7.58l-.29.25,0,.25C674.36,160.78,674.41,161.85,674.43,162.94Z" transform="translate(0 0)"/><path class="cls-1" d="M276.93,7.61c-1.12-1.14-1.79-3.19-2.07-6.24l0-.25L274.63,1h0l0,.18C274.93,4.41,275.68,6.53,276.93,7.61Z" transform="translate(0 0)"/><path class="cls-1" d="M166,276.65c-18.62-28.25-21.52-66.51-7.37-97.45a103.31,103.31,0,0,1,51.68-51.51c-3.5.05-7,0-10.48-.06-2.44,0-4.91-.08-7.38-.08-8,0-16.09.41-23.87,2.55h0c-10.37,2.79-19.06,9.3-23.85,17.84-5.72,9.62-6.87,21.11-7.51,31.13-.08,2.71-.22,5.47-.35,8.15-.29,5.84-.59,11.88-.29,17.82q.25,4.36.47,8.74c.82,15.67,1.66,31.88,4.46,47.59,1.94,10.26,5.64,25.21,15.22,36.53a40.64,40.64,0,0,0,24.94,13.71c5.79,1.06,11.77,1,17.56.9,2.15,0,4.35-.06,6.54,0A103.74,103.74,0,0,1,166,276.65Z" transform="translate(0 0)"/><path class="cls-1" d="M364.21,150.35a9.84,9.84,0,0,0,9.83-9.83V127.69H354.38v12.83A9.84,9.84,0,0,0,364.21,150.35Z" transform="translate(0 0)"/><path class="cls-1" d="M279.13,127.66l-.42,0A98.21,98.21,0,0,1,331,164.74a96.33,96.33,0,0,1,17.62,47.18c.05.81.15,1.61.25,2.47.35,3,.72,6.15-.95,8.89-7.19,13-14.46,26.32-21.61,39.46l.15-.08c2-1.13,4.13-2.3,5.19-4.37q3.21-5.85,6.4-11.7c3.93-7.19,8-14.63,12-21.91.15-.32.34-.67.52-1a7.72,7.72,0,0,0,1.07-2.73A100,100,0,0,0,290,128.87C286.57,127.35,282.79,127.5,279.13,127.66Z" transform="translate(0 0)"/><path class="cls-1" d="M436.54,383.33c-27.57.13-55.59.12-82.7.1q-26.15,0-52.3,0c-2,0-4.09,0-6.09-.07a61.25,61.25,0,0,0-13.24.61,44.25,44.25,0,0,0-16.25,8.5q5.73,0,11.46,0c7.91,0,16.09-.07,24.14,0h.2c3.64,0,7.44,1.6,11.59,4.89a111.47,111.47,0,0,1,8.84,8.14c1.81,1.79,3.68,3.65,5.6,5.38,15.79,15,42.33,17.52,61.74,6,5-3.07,9.26-7.27,13.37-11.33a113.61,113.61,0,0,1,8.86-8.16c4.24-3.35,8.14-4.91,11.83-4.87,8-.12,16.2-.08,24.1,0q5.7,0,11.4,0c-5.34-4.36-13.29-9.14-22.46-9.14Z" transform="translate(0 0)"/><path class="cls-1" d="M218.1,312.47a98.91,98.91,0,0,1-43.27-31.82,97.36,97.36,0,0,1-6-110.27,98.1,98.1,0,0,1,55.81-42.73l-.72,0c-.94,0-1.88-.06-2.83-.06A18.18,18.18,0,0,0,214,128.7h0a99.89,99.89,0,0,0-5,182.73c2.68,1.36,5.74,1.2,8.7,1Z" transform="translate(0 0)"/><path class="cls-1" d="M567.73,182a102.35,102.35,0,0,1-48.39,130.49h.09l4.48,0c11.28.09,22.94.2,33-5.36,14.62-7.71,21.51-24.28,24.72-36.83C586,252.92,587,234.68,587.91,217c.18-3.37.36-6.73.56-10.08.51-10-.14-20.15-.77-30l-.19-3c-1-15.19-5.59-26.74-13.59-34.32-7.81-7.49-19.36-11.53-34.36-12-5.46,0-10.91,0-16.36,0h-8.5A102.77,102.77,0,0,1,567.73,182Z" transform="translate(0 0)"/><path class="cls-1" d="M478.55,127.85h0c-2,0-4.05,0-6,0l-3.28,0a72.94,72.94,0,0,0-13.71,1,94.27,94.27,0,0,0-76,85.27c0,.6-.07,1.24-.12,1.88-.18,2.23-.37,4.53,1,6.36,4.31,7.81,8.56,15.59,12.81,23.36q5.1,9.33,10.21,18.65a6.15,6.15,0,0,0,2.9,2.67c8.36,4.78,17.76,7.54,26.85,10.21,2.49.73,5.07,1.49,7.58,2.27,7.09,2.35,13.77,5.86,20.23,9.26,4.89,2.57,10,5.24,15.14,7.36,8.45,2.84,14.83,8.94,17.12,16.36,5.8-.38,11.37-2.62,16.3-4.59a94,94,0,0,0,2.59-172.37C500.25,130.2,488.95,127.61,478.55,127.85Z" transform="translate(0 0)"/><path class="cls-1" d="M274.61,368.81c-.45,1.19-.91,2.37-1.33,3.57-.58,1.5-1.13,3-1.68,4.48-1.27,3.42-2.57,6.94-4.1,10.34,7.18-4.62,13.72-7,20-7.18q44.11,0,88.17,0h52.89c1.14,0,2.28,0,3.42,0,4.43-.07,9-.15,13.38,1.28a51.49,51.49,0,0,1,12.28,5.88c-1.56-3.48-2.89-7.09-4.19-10.59-.51-1.39-1-2.77-1.55-4.15-.43-1.22-.89-2.42-1.36-3.62-1.56-4.08-3.17-8.29-3.62-12.75a43.37,43.37,0,0,1,11-33.42c-1.5.05-3,.13-4.52.2-8,.39-16.26.8-24-2-10.54-3.36-20.06-9.21-29.27-14.87-9.84-6-20-12.3-31.4-15.46-5.7-1.61-12.11-.74-20.16,2.74h0c-8.2,3.39-15.9,8.12-23.35,12.7-9.42,5.78-19.16,11.76-30,15.12-7.46,2.56-15.41,2.17-23.09,1.79-1.56-.08-3.17-.16-4.75-.21a43.28,43.28,0,0,1,11,33.39C277.79,360.49,276.17,364.72,274.61,368.81Z" transform="translate(0 0)"/><path class="cls-1" d="M438.63,127.8a35.86,35.86,0,0,0-8,3.11l-1.5.72a99.81,99.81,0,0,0-50.56,58.14,103.37,103.37,0,0,0-5.11,30.37,5.75,5.75,0,0,0,.93,3.17c.14.27.28.55.4.82,5.85,10.63,12.14,22.07,18.35,33.53,1.1,2.45,3.43,3.82,5.72,5.11-7-13-14.31-26.24-21.64-39.52A7.83,7.83,0,0,1,376,219a97.56,97.56,0,0,1,70.47-91.32A51.38,51.38,0,0,0,438.63,127.8Z" transform="translate(0 0)"/><path class="cls-1" d="M721.59,244.64c-.35-2.13-.79-4.3-1.22-6.41-1.27-6.28-2.59-12.78-1.87-19.33.91-6.62,2.3-13.25,3.64-19.66.63-3,1.28-6.11,1.87-9.17-.21-11.82-1.43-24.47-4-41-4.07-24.73-9.53-44.28-17.16-61.5-6.39-14.08-13.08-24.19-21-31.8-2.91-2.13-5.95-4.31-8.89-6.41-7-5-14.14-10.12-20.85-15.68-.55-.42-1.1-.91-1.63-1.39-1.54-1.39-3-2.69-5-2.85-19.34-3.51-38.71-7.37-57.62-11.48l-.79-.18c-13.8-3.06-28.08-6.22-41.58-11.17-17.6-2.18-35.61-3.11-53-4-5.37-.28-10.75-.56-16.11-.87-6.45-.22-13-.38-19.39-.54l-4.45-.11c-1.11,0-1.3.74-1.45,2.38a7.44,7.44,0,0,1-.3,1.73,5.59,5.59,0,0,1-6.22,4.34q-33,0-66,0c-32.47,0-66,0-99.05,0h0c-4.83,0-5.54-5.72-5.75-8a7.33,7.33,0,0,0-4.08-.43,19,19,0,0,1-2,.08c-22.43.61-45.5,1.81-70.5,3.66-2.24.29-4.58.46-6.84.61-5.54.39-11.27.79-16.42,3.18-15.45,5-31.54,8.32-47.1,11.57l-9.19,1.93c-13.89,2.83-26.3,5.23-37.94,7.33-1.84.1-3.16,1.26-4.56,2.48l-.88.76C67.71,38.21,60.69,43.24,53.9,48.1c-3.71,2.65-7.54,5.4-11.23,8.19-10.9,11-19.11,25.48-26.57,47C7.5,129.19,2.42,158.06,1,189.07c.63,4.3,1.58,8.73,2.5,13S5.36,210.6,6,214.92c1.82,8,.18,16.17-1.4,24-.38,1.89-.77,3.85-1.11,5.76-.26,1.75-.7,3.5-1.13,5.2A30.5,30.5,0,0,0,1,259a339.23,339.23,0,0,0,11.45,72.31c5.94,20.78,12.91,36.34,22,49l.48.64c2.8,3.69,5.7,7.5,9.39,10.37L50,395.39C57.83,401,65.9,406.72,73.43,413c.52.39,1,.86,1.51,1.31a7.74,7.74,0,0,0,3.71,2.33l10.81,2.08c25.46,4.88,51.78,9.93,77.24,16.77a56.75,56.75,0,0,1,7,2.2,37.74,37.74,0,0,0,10.1,2.65c34.77,3.12,73,5,116.85,5.66,21.1.7,42.57.65,63.32.6,8.21,0,16.42,0,24.63,0,10,.08,20.23-.18,30.09-.43,4.3-.11,8.59-.22,12.89-.31,20.24-.2,40.78-1.14,60.65-2.06l8.36-.38c4.58-.36,9.27-.67,13.8-1,10.08-.66,20.49-1.34,30.67-2.65,18.48-6.48,38-10.49,56.83-14.38q5.2-1.07,10.39-2.15c5.3-1.17,10.74-2.17,16-3.14,6.46-1.19,13.13-2.42,19.61-4,10.55-9,22.35-17.3,31.84-24,3.74-2.55,6.66-6.25,9.24-9.52,8-10.33,14.37-23,20.14-39.78,8.32-25,13.22-52.35,15-83.73a30.59,30.59,0,0,0-1.33-9.25C722.3,248.16,721.86,246.4,721.59,244.64ZM215.5,6.87c6-.26,12.05-.57,17.92-.88,12-.63,24.38-1.27,36.59-1.44h.42l.08.41c.85,4.33,4.82,8.53,10,8q82,0,164,0c4.72.47,9.13-3.08,10.1-8l.08-.41h.42c12.21.17,24.61.81,36.59,1.44,5.87.31,11.95.62,17.92.88l1,0-.58.76c-6.4,8.46-17.34,10.21-27,11.76l-1.41.23c-26.18,3.69-53,4.46-79,5.21l-3.05.09c-8.6.41-17,.6-25,.61q-6.54.19-13.12.18c-11.56,0-23.15-.36-34.47-.72-7.38-.23-15-.47-22.52-.61q-5.37-.29-10.71-.55c-19.55-1-39.76-2-59.32-5.82-8.77-1.58-15.27-5.07-19.31-10.37l-.58-.76Zm502.1,283.62c-3.94,26.23-9.37,46.92-17.1,65.11-3.9,9-10.28,22-20.53,32-3.3,2.45-6.64,4.86-9.87,7.18-8.08,5.81-16.44,11.81-24.07,18.46l-.1.09-.14,0c-22.9,4.16-45.39,8.69-66.84,13.48l-1,.24c-10.82,2.52-22,5.12-32.54,9.1-7.52,1.24-15.14,1.75-22.52,2.25-4,.27-8.14.55-12.19.93-44.27,2.59-91.45,3.87-144.64,3.87-27.72,0-57.08-.35-88.5-1-5.43-.36-10.93-.49-16.26-.62-6.45-.15-13.13-.31-19.68-.88-5.51,0-11.14-.41-16.57-.76-3.78-.25-7.68-.5-11.52-.64-4-.38-8-.65-11.89-.91-7.18-.48-14.6-1-21.82-2.19-10.68-4-21.92-6.63-32.78-9.15l-.84-.19c-21.36-4.77-43.86-9.31-66.88-13.49l-.13,0-.1-.09c-8.9-7.69-18.66-14.63-28.09-21.35l-1.27-.9c-7.42-4.69-12.44-12.12-17.34-20C19.17,348.28,13.2,322.48,9.48,302.54c-3.11-17.52-4.67-32-4.9-45.44.61-4.34,1.54-8.64,2.44-12.79,1.86-8.57,3.78-17.42,2.92-26.33-.83-5.83-2-11.73-3.21-17.43-.71-3.44-1.44-7-2.07-10.5-.09-11.83,1.37-23.5,2.88-34.46,3.86-25.6,9.13-45.86,16.58-63.77,4-9.3,10.47-22.85,21.07-33.12,3.48-2.61,7-5.15,10.45-7.6C62.71,46,70,40.8,76.72,35l.55-.44a11.42,11.42,0,0,1,2.24-1.53l.12,0,14.49-2.82c24.53-4.75,49.89-9.65,74.4-16.33a44,44,0,0,0,6.16-2,31.92,31.92,0,0,1,8.85-2.4c8.86-.9,18.37-1.65,29.91-2.37l.27,0,.16.22c4.23,5.77,11.22,9.75,19.67,11.21,22,4.34,44.76,5.32,66.78,6.27,4.75.2,9.5.41,14.24.64,7.95,0,16.07.26,23.91.54s16.07.56,24.09.53,16.17-.26,24.06-.53,15.91-.56,23.9-.54c4.65-.23,9.34-.43,14-.63,22.1-.95,44.95-1.93,67-6.28C500,17.1,507,13.11,511.24,7.34l.16-.22,5.1.34c9.24.61,18.79,1.25,28.13,2.47l.11,0c12.17,4.54,24.89,7.43,37.19,10.22,20.18,4.45,40.94,8.63,61.7,12.41,2,.13,3.5,1.4,4.94,2.63.31.26.61.52.92.77,6.8,5.7,14.13,10.95,21.22,16,2.88,2.06,5.75,4.11,8.6,6.21,7.61,6.91,12.83,15.73,16.53,22.65,8.11,15.73,14.1,34.16,18.85,58,3.67,19.06,5.51,35,5.82,50.11-.59,4.52-1.56,9-2.5,13.34C716.15,211,714.21,220,715.23,229c1,6.41,2.33,12.89,3.61,19.16.53,2.6,1.07,5.2,1.58,7.8C720.58,267.5,719.17,278.87,717.59,290.49Z" transform="translate(0 0)"/><path class="cls-1" d="M33.3,282.1c-.27,3.15,1.82,6.72,5.34,7.06l.92.07c3.25.24,6.93.5,9.25-1.9,1.7-1.62,1.72-4.06,1.74-6.42,0-.29,0-.59,0-.87-.06-17.26,0-34.81,0-51.79,0-22,0-44.7-.1-67.05a16.47,16.47,0,0,0-11-5,8.1,8.1,0,0,0-.88,0c-3.48.35-5.27,3.8-5,6.93,0,19.55-.07,39.33-.14,58.46C33.37,241.44,33.29,261.91,33.3,282.1Z" transform="translate(0 0)"/><path class="cls-1" d="M714.23,229.1c-1-9.19.92-18.25,2.81-27,.93-4.32,1.89-8.78,2.48-13.19-.31-15-2.15-30.85-5.81-49.86C709,115.31,703,97,695,81.33c-3.66-6.84-8.82-15.56-16.28-22.34-2.81-2.06-5.68-4.11-8.55-6.17-7.11-5.08-14.46-10.34-21.27-16.06-.31-.25-.62-.51-.94-.78-1.38-1.18-2.68-2.29-4.42-2.4-20.83-3.79-41.6-8-61.79-12.42-12.31-2.79-25-5.68-37.26-10.24-9.3-1.21-18.81-1.85-28-2.46l-4.55-.31c-4.41,5.86-11.56,9.9-20.15,11.39-22.12,4.37-45,5.35-67.15,6.29-4.69.2-9.37.4-14,.63-8,0-16.07.26-23.89.54s-15.71.54-23.59.53V39.48H587.54a79.76,79.76,0,0,1,42.47,13c17.18,11.2,26.51,28,31.31,40.1,5.58,13.8,8.73,29.8,9.92,50.35a154.54,154.54,0,0,1,.95,17.1l1.07-1c1-5.42,5.51-5.9,10.5-5.94h1.59a9.19,9.19,0,0,1,6.53,3,8.08,8.08,0,0,1,2.25,6q0,27.87,0,55.82c0,20.68,0,42.07,0,63.11.09,2.65-.12,6-2.48,8.15-2.73,2.87-6.75,2.64-10.29,2.45a11.57,11.57,0,0,1-5.3-1.55c-2.55-1.52-3.33-3.42-4.12-5.62l-1.86,0c-1.63,15-3.6,30.92-7.88,46-7.06,25.37-18.75,44.42-34.75,56.64-18.43,14.48-41.09,17.84-56.86,18.11-15,.05-30.24,0-45,0q-17.59,0-35.18,0c-8.37,0-15.08-1.45-20.52-4.43a29.07,29.07,0,0,1-4.66-3c-1-.72-1.94-1.46-3-2.09-6.58-.23-13.28-.19-19.77-.16-4.24,0-8.63,0-12.94,0-.82,0-1.67,0-2.52,0-3.3-.06-6.72-.11-9.56,1.68-4.79,2.93-8.84,7-12.76,10.85-1.86,1.84-3.78,3.75-5.75,5.52-9.73,9-23,13.66-36.45,13.66A56.53,56.53,0,0,1,334.71,420c-5.47-3.1-10-7.53-14.29-11.82-4-3.92-8-8-12.85-10.94-2.83-1.82-6.26-1.76-9.58-1.71-.82,0-1.64,0-2.44,0-4.3,0-8.68,0-12.92,0-6.53,0-13.28-.08-19.9.16-.89.6-1.78,1.25-2.64,1.88a32.12,32.12,0,0,1-6.35,4c-7.83,3.9-16.68,3.82-25.24,3.73H163.05c-5.09,0-10.35,0-15.52-.45-19.23-1.11-37.16-7.55-50.47-18.14C84.39,376.87,74.38,362.53,67.32,344c-6.88-17.87-9.91-36.62-12.3-59.24l-1.92-.35c-.17.36-.34.73-.51,1.11-.75,1.69-1.53,3.43-3.2,4.52-2.36,1.74-5.28,1.66-8.1,1.58-.59,0-1.17,0-1.74,0A8.39,8.39,0,0,1,31,283c0-40.13,0-80.86,0-121a8.33,8.33,0,0,1,6.46-8.36,20.51,20.51,0,0,1,15.33,5.1l.12-.09c1-20.13,2.12-40.92,8.77-60.33,4.3-12.75,12.87-30.55,29.3-42.93,12.8-9.89,29.35-15.55,46.61-15.94h224.5V27.54c-7.89,0-15.89-.26-23.63-.53s-15.93-.55-23.9-.54c-4.76-.24-9.51-.44-14.25-.65-22.06-.95-44.87-1.93-66.92-6.28-8.59-1.49-15.73-5.52-20.13-11.38-11.4.71-20.82,1.46-29.61,2.35A31.16,31.16,0,0,0,175,12.84a44.63,44.63,0,0,1-6.27,2c-24.51,6.68-49.9,11.59-74.44,16.34L79.89,34a10.8,10.8,0,0,0-2,1.38l-.55.44c-6.72,5.76-14,11-21.13,16.08-3.42,2.45-7,5-10.39,7.55C35.41,69.56,29,83,25,92.21c-7.42,17.83-12.67,38-16.52,63.53C7,166.65,5.57,178.28,5.65,190c.63,3.41,1.36,7,2.06,10.39,1.17,5.72,2.39,11.63,3.22,17.52.87,9.08-1.06,18-2.94,26.66-.9,4.14-1.83,8.42-2.42,12.64.23,13.35,1.79,27.74,4.89,45.2,3.71,19.86,9.65,45.55,22.75,68.1,4.83,7.73,9.78,15.06,17,19.65l1.29.92c9.42,6.7,19.16,13.63,28.06,21.32,23,4.17,45.45,8.7,66.79,13.47l.84.2c10.89,2.53,22.16,5.15,32.81,9.17,7.08,1.18,14.47,1.67,21.62,2.15,3.9.26,7.93.53,11.89.91,3.83.14,7.74.4,11.52.65,5.42.35,11,.72,16.56.76,6.56.57,13.22.72,19.66.88,5.34.13,10.86.25,16.28.62,91.68,2,165.74,1.11,233-2.83,4-.39,8.19-.67,12.2-.93,7.35-.49,14.95-1,22.33-2.21,10.51-4,21.73-6.59,32.57-9.12l1-.24c21.43-4.78,43.88-9.31,66.75-13.46,7.64-6.64,16-12.63,24-18.43,3.23-2.32,6.57-4.72,9.81-7.13,10.08-9.79,16.39-22.72,20.26-31.59,7.69-18.1,13.1-38.71,17-64.85,1.57-11.57,3-22.9,2.82-34.32-.5-2.51-1-5.11-1.57-7.7C716.57,242,715.24,235.55,714.23,229.1Z" transform="translate(0 0)"/><path class="cls-1" d="M234.62,17.06c19.49,3.83,39.67,4.84,59.18,5.81q5.35.27,10.7.55c7.5.13,15.13.38,22.52.61,15.58.49,31.7,1,47.54.54,7.92,0,16.35-.2,25-.61l3.06-.09c25.93-.74,52.75-1.51,78.86-5.2l1.4-.22C492,17,502.34,15.32,508.58,7.83c-5.66-.25-11.4-.55-17-.84-11.84-.62-24.08-1.26-36.14-1.43-1.23,5.25-6,8.94-11,8.44q-81.9,0-163.91,0c-5,.47-9.67-3.14-10.91-8.44-12.06.18-24.3.81-36.14,1.43-5.55.29-11.29.59-16.95.84C220.44,12.49,226.52,15.6,234.62,17.06Z" transform="translate(0 0)"/><path class="cls-1" d="M240.84,312.34a82.43,82.43,0,0,1,8.74.19c4.18.56,7.76,2.65,11.22,4.68,1,.61,2.12,1.24,3.2,1.81,2,.07,4,.19,5.93.3,8.74.5,17.78,1,26.06-2.19,9.84-3.42,18.85-8.95,27.57-14.29,9.67-5.93,19.68-12.07,30.87-15.38a28.89,28.89,0,0,1,17,.24c10.85,3.36,20.61,9.34,30,15.13s19.25,11.8,30.08,15.11c6.09,2.06,12.61,1.81,18.92,1.58,1.7-.06,3.39-.13,5.07-.15.68-.07,1.43-.08,2.15-.08,1.88,0,3.65,0,5.07-1.11,3.55-2.38,8.29-5.17,13.65-5.75,2.55-.12,5.1-.1,7.58-.08,1.74,0,3.54,0,5.32,0a20.57,20.57,0,0,0-4.84-7.24c-2.93-2.79-6.72-4.38-10.39-5.91-.89-.37-1.78-.75-2.66-1.13-4.1-1.85-8.14-4-12-6-6.93-3.66-14.1-7.44-21.74-9.72L436.6,282c-7.21-2.08-14.66-4.23-21.8-7-6.67-2.54-12.79-6.31-18.72-10a122.28,122.28,0,0,0-17-9.25c-1.26-.56-5.56-2.17-8.3.54l0,0c-1.86,1.45-1.84,3.73-1.83,6.15a22.32,22.32,0,0,1-.09,2.66l-.05.42-.43,0c-3.78.15-7.69.14-11.63,0l-.43,0,0-.43a22.7,22.7,0,0,1-.08-2.62c0-2.43,0-4.73-1.84-6.18-2.76-2.72-7-1.14-8.28-.6-6,2.48-11.6,5.94-17,9.28-5.94,3.66-12.07,7.44-18.75,10-7.09,2.69-14.49,4.83-21.65,6.91l-1.2.35c-7.66,2.29-14.84,6.07-21.78,9.73a170.33,170.33,0,0,1-15.77,7.63c-6.89,2.42-12,7-14.17,12.69C237.41,312.38,239.15,312.36,240.84,312.34Z" transform="translate(0 0)"/><path class="cls-1" d="M65,99.24a148.42,148.42,0,0,0-7,35A815.34,815.34,0,0,0,59.1,290c1.9,17.68,5.34,40.65,15.15,61.54,7.45,15.93,18.13,28.64,30.88,36.75,13.69,8.88,31.5,13.59,51.5,13.61H174c20.81,0,42.33,0,63.49,0,9.64-.16,22.37-4.19,26.47-15.06,2.19-5.21,4.18-10.57,6.11-15.77.82-2.2,1.63-4.4,2.46-6.59,6.44-15.79.15-35.48-14.3-44.83-4.52-2.78-8.82-4.09-12.76-3.92q-13.92,0-27.8,0H201.52l-2.24,0c-9.32.09-19,.18-27.83-3.47C160,308,150.28,297.91,144.79,284.56c-7.7-18.59-9-39-10.34-58.73l-.18-2.68A292.69,292.69,0,0,1,135,167c1.66-12.74,6.95-23.61,14.91-30.62,11.21-10.09,26.69-12.09,37.67-12H531.55c7.1-.05,16-.12,24.15,2a43.74,43.74,0,0,1,23.9,14.63c5.89,7.18,9.5,16.63,10.72,28.08a282.77,282.77,0,0,1,.89,47.88q-.21,3.17-.4,6.36c-1.09,17.63-2.22,35.86-7.53,53.05-4.35,14.16-11.62,25-21,31.32-10.22,7-22.35,8.21-30.71,8q-12.37,0-24.76,0-13.6,0-27.21,0h-.67c-4.14,0-8.55,1.55-13.13,4.63-10,7-16.17,19.85-15.73,32.7.12,5.56,2.17,10.83,4.16,15.92.72,1.85,1.46,3.76,2.11,5.67.64,1.58,1.26,3.24,1.85,4.84a62.82,62.82,0,0,0,5.65,12.42c5.76,6.78,15.52,10.47,26.71,10.05q17.58,0,35.12,0c14.4,0,29.29,0,43.93,0,14.8-.1,36.18-3,53.95-16,13.75-9.91,24.75-25.5,31.8-45.08s9.73-40.11,11.38-57.73a812.53,812.53,0,0,0,0-153.11c-3-27.43-11.78-49-26-64.1-13.07-14.15-32.5-22.57-53.32-23.1-92.59-.12-186.74-.1-277.79-.08q-83.5,0-167,0h0c-18.39-.27-35.71,5-48.74,14.79C77.59,69.46,69.19,86.8,65,99.24Z" transform="translate(0 0)"/><path class="cls-1" d="M501.26,127.62l-.76,0a98.92,98.92,0,0,1,53.84,39.69,97.24,97.24,0,0,1-12.62,122.91A97.4,97.4,0,0,1,507,312.46l.45,0c3,.16,6,.31,8.68-1A99.91,99.91,0,0,0,569,192.32c-8.46-28.54-30.89-53-58.54-63.87C507.51,127.42,504.33,127.52,501.26,127.62Z" transform="translate(0 0)"/><path class="cls-1" d="M248.88,296.16c5.21-2.14,10.29-4.81,15.21-7.39A154.21,154.21,0,0,1,282,280.31c3.78-1.32,7.73-2.47,11.54-3.58,9.44-2.75,19.19-5.6,27.37-11.28,9.3-16.51,17.41-31.35,24.79-45.34a92.52,92.52,0,0,0-18.36-54.81,93.9,93.9,0,0,0-52-35.16,66.32,66.32,0,0,0-18.8-2.28h0c-1.94,0-3.92,0-5.84,0l-3.19,0a73.73,73.73,0,0,0-13,.89,94,94,0,0,0-30.35,173.49c8.5,4.74,17.74,9.26,27.67,10.27a26.52,26.52,0,0,1,5.16-8.94C240.42,299.83,245.15,297.65,248.88,296.16Z" transform="translate(0 0)"/><path class="cls-1" d="M91.55,56.21c-16.23,12.23-24.71,29.84-29,42.45-6.68,19.47-7.73,40.41-8.75,60.66l-.32,6.32-1.12-5.29-.23.23c-.31.3-.54.53-.74.68.13,22.33.12,45,.1,67,0,17,0,34.53,0,51.8,0,.29,0,.58,0,.87,0,2.45,0,5.22-2,7.12-2.63,2.72-6.56,2.43-10,2.18l-.93-.07c-4.13-.41-6.56-4.52-6.26-8.1,0-20.15.07-40.62.14-60.42.07-19.13.14-38.91.14-58.41-.31-3.57,1.8-7.56,5.89-8,3.86-.42,9.56,1.9,12.49,5,.3-.28.6-.54.9-.8l.11-.1a19.41,19.41,0,0,0-14.37-4.74A7.41,7.41,0,0,0,32,162c0,40.19,0,80.92,0,121.08a7.07,7.07,0,0,0,2.14,5.37,7.17,7.17,0,0,0,5.42,2.19c.61,0,1.2,0,1.8,0,2.65.07,5.39.15,7.5-1.4,1.44-.94,2.16-2.55,2.85-4.11.23-.51.45-1,.69-1.49l.17-.33,3.4.61,0,.37c2.4,22.71,5.4,41.5,12.28,59.36,7,18.3,16.9,32.5,29.42,42.2,13.16,10.46,30.89,16.82,49.93,17.93,5.14.49,10.38.46,15.44.44h65.46c8.44.09,17.16.17,24.81-3.64a31.38,31.38,0,0,0,6.18-3.85c.91-.67,1.84-1.36,2.8-2l.12-.08h.14c6.69-.24,13.5-.2,20.08-.17,4.24,0,8.62,0,12.92,0,.8,0,1.61,0,2.42,0l1.75,0c2.9,0,5.81.24,8.37,1.88,4.89,3,9,7.12,13,11.07,4.29,4.24,8.72,8.63,14.08,11.66,20.23,11.5,46.8,8.86,63.16-6.28,2-1.76,3.87-3.66,5.72-5.49,4-3.93,8.06-8,12.94-11,3.08-2,6.65-1.89,10.1-1.84.84,0,1.68,0,2.5,0,4.32.05,8.7,0,12.94,0,6.54,0,13.3-.07,19.94.17h.13l.11.07c1.1.67,2.14,1.46,3.15,2.21a28.3,28.3,0,0,0,4.51,3c5.32,2.91,11.87,4.32,20.06,4.32q17.59,0,35.18,0c14.74,0,30,0,45,0,15.6-.26,38-3.59,56.25-17.9,15.83-12.08,27.4-31,34.4-56.12,4.3-15.18,6.26-31.2,7.89-46.31l0-.45h.46l2.65,0h.35l.12.33c.9,2.49,1.57,4.08,3.82,5.43a10.58,10.58,0,0,0,4.84,1.41c3.33.18,7.1.39,9.54-2.17,2.08-1.9,2.27-4.81,2.18-7.42,0-21,0-42.44,0-63.12q0-27.93,0-55.85a7.11,7.11,0,0,0-2-5.28,8.18,8.18,0,0,0-5.81-2.7h-1.57c-5.09,0-8.07.68-9.19,3.83l.07-.05a10.05,10.05,0,0,0,.94-.8l.07-.07c2.91-2.69,7.19-2.46,11-2,4.09.44,6.5,4.56,6.17,8.13V282c.49,4.07-2.07,7.27-6.54,8.09a11.66,11.66,0,0,1-3.11.11c-2.42-.2-9.79-.79-9.52-7.21-.11-17.9-.08-36.13-.05-53.76,0-21.74.07-44.22-.15-66.32,0-.88,0-1.76-.12-2.61l-1.3,1.21-.87.82,0-1.19a149.42,149.42,0,0,0-.93-18.18c-1.19-20.47-4.32-36.37-9.86-50.06h0c-4.75-12-14-28.58-30.93-39.64a79.85,79.85,0,0,0-41.93-12.81h-450C120.54,40.86,104.19,46.45,91.55,56.21ZM460.47,393.47q-6.39,0-12.78,0c-7.9,0-16.07-.07-24.1,0h-.21c-3.43,0-7,1.52-11,4.65a112.86,112.86,0,0,0-8.77,8.09c-4.15,4.1-8.43,8.35-13.56,11.48a53.7,53.7,0,0,1-27.43,7.37c-13.15,0-26.17-4.59-35.5-13.44-1.92-1.74-3.8-3.6-5.62-5.4a110.93,110.93,0,0,0-8.76-8.07c-4-3.2-7.7-4.73-11.17-4.67-8.06-.12-16.23-.08-24.14,0q-6.39,0-12.79,0h-1.29l1-.87A44.78,44.78,0,0,1,282,383a62,62,0,0,1,13.5-.64c2,.05,4,.11,6,.07q26.17,0,52.31,0c27.1,0,55.13,0,82.69-.1h.09c10.1,0,18.71,5.58,24.17,10.26l1,.88Zm-194.74-71-.83-.87,1.2,0c2,0,4,.15,6,.24,7.59.38,15.44.76,22.73-1.75,10.75-3.33,20.43-9.27,29.8-15,7.48-4.59,15.22-9.34,23.49-12.77s14.89-4.45,20.82-2.78c11.52,3.2,21.75,9.49,31.65,15.58,9.16,5.63,18.63,11.45,29.07,14.78,7.57,2.74,15.73,2.34,23.63,2,1.92-.09,3.83-.19,5.73-.24l1.21,0-.83.88a42.41,42.41,0,0,0-11.51,33.51c.44,4.34,2,8.49,3.57,12.5.46,1.21.93,2.42,1.36,3.64.52,1.37,1,2.76,1.55,4.15,1.49,4,3,8.22,4.92,12.16l.83,1.75L458.51,389A50,50,0,0,0,445,382.23c-4.2-1.37-8.69-1.3-13-1.23-1.15,0-2.3,0-3.44,0H375.62q-44.08,0-88.15,0c-6.45.21-13.29,2.82-20.89,8L265,390l.8-1.67c1.84-3.84,3.35-7.92,4.81-11.86.55-1.5,1.11-3,1.68-4.48.42-1.19.88-2.38,1.33-3.57,1.54-4,3.13-8.2,3.56-12.56A42.31,42.31,0,0,0,265.73,322.42Zm-57.17-10.09a100.9,100.9,0,0,1,5.06-184.56c3.31-1.38,6.87-1.26,10.31-1.15,1.43,0,2.92.1,4.34,0l4.88-.22-4.73,1.21a97.14,97.14,0,0,0-58.76,43.25,96.36,96.36,0,0,0,6,109.13,97.87,97.87,0,0,0,45.31,32.38l2.9,1-3.07,0c-1,0-2,0-3,.1s-1.95.1-2.92.1A13.58,13.58,0,0,1,208.55,312.33Zm1.67,1.27-2.32-.08c-2.89-.1-5.85-.06-8.71,0-5.83.08-11.86.16-17.73-.92a41.64,41.64,0,0,1-25.54-14.05c-9.73-11.5-13.47-26.62-15.44-37-2.81-15.78-3.65-32-4.47-47.72q-.23-4.37-.47-8.73c-.3-6,0-12.05.29-17.92.13-2.67.27-5.43.35-8.14.64-10.15,1.81-21.78,7.64-31.58,4.92-8.77,13.83-15.45,24.46-18.31,10.32-2.84,21.1-2.67,31.53-2.5,4.27.07,8.68.14,13,0l2.7-.09-2.49,1a102.36,102.36,0,0,0-53.5,52c-14,30.64-11.14,68.51,7.3,96.49a103,103,0,0,0,41.33,36.48Zm-6.53-10.52a95,95,0,0,1,30.66-175.34,88.87,88.87,0,0,1,16.38-.9c1.91,0,3.88,0,5.81,0a67.41,67.41,0,0,1,19.07,2.32,94.89,94.89,0,0,1,52.52,35.54,93.51,93.51,0,0,1,18.56,55.53v.12l-.06.11c-7.41,14.06-15.56,29-24.92,45.57l-.15.17c-8.33,5.83-18.2,8.7-27.75,11.49-3.8,1.11-7.73,2.25-11.48,3.56a153.47,153.47,0,0,0-17.79,8.4c-4.93,2.6-10,5.28-15.3,7.44-3.87,1.54-8.25,3.59-11.51,7.13-2.42,2.53-3.87,5.8-5.09,9l-.14.35-.38,0C221.89,312.57,212.41,307.95,203.69,303.09ZM510.77,127.52c27.94,11,50.6,35.69,59.15,64.52a100.91,100.91,0,0,1-53.39,120.3,13.39,13.39,0,0,1-6.21,1.24c-1,0-2-.05-3-.1s-2-.1-3-.1l-3.05,0,2.89-1A96.7,96.7,0,0,0,541,289.54a96.24,96.24,0,0,0,12.49-121.65c-12.87-19.56-33.56-34.23-56.77-40.25l-4.69-1.22,4.84.23c1.42.07,2.91,0,4.34,0C504.4,126.52,507.67,126.41,510.77,127.52Zm-1-.88h13.42c5.46,0,10.92,0,16.38,0h0c15.25.48,27,4.61,35,12.28,8.19,7.75,12.87,19.52,13.9,35l.19,3c.63,9.86,1.28,20,.77,30.09-.2,3.36-.38,6.72-.56,10.08-.95,17.69-1.93,36-6.29,53.5-4.67,18.27-13.39,31.22-25.21,37.46-8.95,4.94-19,5.51-29,5.51l-4.53,0c-2.21,0-4.49,0-6.7,0l-2.23,0,2-1c24.33-11.8,43.22-32.89,51.83-57.87a101.33,101.33,0,0,0-56.72-127.1Zm2.79,8a95.6,95.6,0,0,1,48.91,51A95,95,0,0,1,510,308.83c-5.12,2.05-10.91,4.38-17,4.69l-.4,0-.11-.38c-2.09-7.27-8.3-13.29-16.62-16.08-5.26-2.15-10.34-4.83-15.25-7.41-6.42-3.38-13.07-6.87-20.07-9.2-2.5-.78-5.07-1.54-7.56-2.27-9.14-2.68-18.59-5.46-27-10.29a7.25,7.25,0,0,1-3.31-3.09q-5.1-9.28-10.2-18.62-6.37-11.66-12.78-23.3c-1.54-2.07-1.34-4.56-1.14-7,.05-.62.1-1.24.12-1.85a95.27,95.27,0,0,1,76.77-86.21c5.69-1.09,11.53-1,17.19-1,2,0,4,0,6,0C489.08,126.6,500.53,129.23,512.57,134.62ZM450,127.79a96.49,96.49,0,0,0-73,91.27,6.81,6.81,0,0,0,1.06,3.72c7.62,13.81,15.18,27.63,22.48,41.07l.86,1.59-1.56-.92-1.31-.75c-2.5-1.41-5.08-2.86-6.33-5.66-6.19-11.42-12.47-22.87-18.34-33.52-.14-.29-.27-.55-.4-.81a6.57,6.57,0,0,1-1-3.69,104.23,104.23,0,0,1,5.15-30.62,100.82,100.82,0,0,1,51.07-58.73l1.5-.72a36.51,36.51,0,0,1,8.3-3.19h0a55.29,55.29,0,0,1,8.56-.11c1,0,1.92.08,2.88.1l3.87.08Zm-15.46-.22A103.58,103.58,0,0,0,400,151.46c-17.64,18.24-27.83,43.63-28,69.67a6.08,6.08,0,0,0,.92,2.49c.15.28.29.55.43.83,5.08,9.16,10.2,18.54,15.14,27.61l4.45,8.16-1.42-.71c-1.36-.67-2.73-1.45-4.06-2.2-4.43-2.5-9-5.09-14.11-4.73a7.55,7.55,0,0,0-5.07,3.11,9.76,9.76,0,0,0-1.66,7.22l.1.58h-8.46l.1-.58a9.74,9.74,0,0,0-1.65-7.22,7.57,7.57,0,0,0-5.12-3.12c-5.07-.36-9.65,2.23-14.08,4.74-1.33.75-2.71,1.53-4.06,2.2l-1.4.7.74-1.38c2.72-5.09,5.56-10.23,8.31-15.21,3.92-7.09,8-14.43,11.74-21.73a100.23,100.23,0,0,0-10.25-45.2,103,103,0,0,0-52.18-49.12l-2.3-1h2.5c11.27,0,22.74,0,33.82,0q13.9,0,27.8,0h.8c17.65,0,35.59,0,52.94,0l28.36,0h2.4ZM290.35,128a101,101,0,0,1,62.28,93,8.54,8.54,0,0,1-1.18,3.15c-.18.33-.36.66-.52,1-4.06,7.31-8.12,14.74-12,21.93q-3.19,5.85-6.39,11.69c-1.2,2.33-3.43,3.57-5.59,4.77-.56.31-1.12.62-1.66,1l-1.6,1,.89-1.64c7.42-13.65,15-27.46,22.47-41,1.5-2.47,1.15-5.42.82-8.27-.1-.83-.2-1.68-.25-2.5a95.32,95.32,0,0,0-17.44-46.68A97,97,0,0,0,275,127.73l-4.33-1.06,4.46.07c1.29,0,2.63,0,3.93-.09C282.86,126.5,286.77,126.34,290.35,128ZM234.51,312.66c2.11-6.25,7.58-11.33,15-13.94a169.83,169.83,0,0,0,15.66-7.58c7-3.68,14.21-7.49,22-9.81l1.2-.35c7.14-2.07,14.52-4.2,21.57-6.88,6.59-2.51,12.69-6.26,18.58-9.9,5.46-3.36,11.11-6.84,17.16-9.35,3.71-1.63,7.2-1.34,9.33.77,2.23,1.72,2.2,4.49,2.18,6.94,0,.72,0,1.42,0,2.07,3.61.13,7.2.13,10.67,0,.05-.67,0-1.37,0-2.11,0-2.42,0-5.17,2.19-6.92,2.16-2.12,5.66-2.39,9.38-.73a123.07,123.07,0,0,1,17.11,9.32c5.89,3.63,12,7.37,18.55,9.88,7.1,2.71,14.53,4.85,21.72,6.93l1.09.32c7.74,2.31,15,6.11,21.93,9.79,3.9,2.05,7.92,4.18,12,6,.87.38,1.75.75,2.63,1.13,3.75,1.57,7.63,3.2,10.67,6.1,2.63,2.3,4.16,5.47,5.38,8.26l.3.68-.74,0c-2,.06-4.1,0-6.1,0-2.46,0-5,0-7.49.08-5.12.55-9.72,3.27-13.15,5.57-1.66,1.27-3.68,1.29-5.64,1.3-.74,0-1.43,0-2.1.08-1.72,0-3.4.09-5.09.15-6.4.24-13,.49-19.26-1.62-10.95-3.34-20.79-9.37-30.3-15.21s-19.09-11.71-29.83-15a27.91,27.91,0,0,0-16.45-.24c-11.07,3.27-21,9.37-30.63,15.27-8.76,5.37-17.82,10.93-27.75,14.38a45.28,45.28,0,0,1-16.59,2.63c-3.3,0-6.61-.19-9.88-.38-2-.11-4-.23-6-.3h-.12l-.1-.05c-1.12-.6-2.25-1.25-3.33-1.89-3.38-2-6.87-4-10.83-4.55a82.65,82.65,0,0,0-8.61-.19c-1.93,0-3.92.05-5.89,0l-.67,0Zm75.06-271c91.05,0,185.2,0,277.8.08,21.09.54,40.79,9.08,54,23.42,14.38,15.26,23.22,37,26.27,64.68a813.63,813.63,0,0,1,0,153.3c-1.66,17.68-4.32,38.39-11.44,58-7.12,19.77-18.25,35.52-32.16,45.54-18,13.22-39.58,16.11-54.53,16.21-14.64,0-29.54,0-43.94,0q-17.55,0-35.1,0-.86,0-1.71,0c-10.77,0-20.12-3.78-25.82-10.49a63.28,63.28,0,0,1-5.79-12.66c-.59-1.6-1.2-3.25-1.85-4.84-.65-1.91-1.39-3.81-2.1-5.65-2-5.17-4.1-10.53-4.22-16.26-.46-13.17,5.89-26.34,16.16-33.55,5-3.37,9.86-5,14.39-4.79q13.57,0,27.18,0,12.39,0,24.78,0c8.24.24,20.13-.92,30.14-7.8,9.21-6.2,16.34-16.85,20.63-30.78,5.27-17.08,6.4-35.25,7.49-52.82q.2-3.19.4-6.37a281.68,281.68,0,0,0-.89-47.71c-1.2-11.25-4.73-20.52-10.5-27.55a42.75,42.75,0,0,0-23.37-14.29c-8.07-2.12-16.85-2.06-23.9-2H187.62c-10.81-.1-26,1.86-37,11.74-7.78,6.85-13,17.5-14.58,30a291.69,291.69,0,0,0-.77,55.93l.18,2.69c1.29,19.65,2.63,40,10.27,58.41,5.39,13.1,14.91,23,26.1,27.17,8.69,3.58,18.22,3.49,27.45,3.4l2.25,0h16.2q13.88,0,27.77,0c4.12-.17,8.61,1.18,13.31,4.07,14.85,9.61,21.31,29.83,14.7,46-.83,2.18-1.64,4.38-2.46,6.58-1.93,5.2-3.92,10.58-6.12,15.79-4.28,11.32-17.43,15.53-27.39,15.69-21.17.05-42.69,0-63.5,0H156.62c-20.2,0-38.2-4.79-52-13.77-12.9-8.21-23.71-21.06-31.24-37.17-9.87-21-13.32-44.1-15.23-61.86A816.33,816.33,0,0,1,57,134.1a149.43,149.43,0,0,1,7.06-35.19c4.23-12.57,12.73-30.11,29.18-42.26,13.2-9.94,30.73-15.27,49.35-15Q226.07,41.7,309.58,41.67Z" transform="translate(0 0)"/><path class="cls-2" d="M715.23,229c-1-9,.92-18,2.79-26.66.94-4.34,1.9-8.82,2.5-13.34-.31-15.12-2.16-31-5.82-50.11C709.95,115,704,96.6,695.85,80.86c-3.7-6.91-8.92-15.73-16.53-22.65-2.85-2.09-5.73-4.15-8.6-6.21-7.09-5.07-14.42-10.32-21.22-16-.31-.25-.61-.51-.92-.77-1.44-1.23-2.93-2.51-4.94-2.63-20.76-3.78-41.52-8-61.7-12.41-12.3-2.79-25-5.68-37.19-10.22l-.11,0c-9.35-1.22-18.9-1.86-28.13-2.47l-5.1-.34-.16.22C507,13.11,500,17.1,491.54,18.56c-22.06,4.35-44.91,5.33-67,6.28-4.69.2-9.37.4-14,.63-8,0-16.07.26-23.9.54s-16,.56-24.06.53-16.2-.26-24.09-.53-16-.55-23.91-.54c-4.74-.24-9.49-.44-14.24-.64-22-.95-44.79-1.93-66.78-6.27-8.45-1.46-15.44-5.44-19.67-11.21l-.16-.22-.27,0c-11.54.72-21,1.47-29.91,2.37a31.92,31.92,0,0,0-8.85,2.4,44,44,0,0,1-6.16,2c-24.5,6.67-49.87,11.58-74.4,16.33L79.63,33l-.12,0a11.42,11.42,0,0,0-2.24,1.53l-.55.44c-6.71,5.75-14,11-21.08,16-3.43,2.46-7,5-10.45,7.6C34.59,69,28.08,82.52,24.12,91.82,16.66,109.73,11.39,130,7.53,155.59c-1.5,11-3,22.63-2.88,34.46.64,3.51,1.37,7.06,2.07,10.5,1.17,5.7,2.38,11.6,3.21,17.43.86,8.9-1.06,17.76-2.92,26.33-.9,4.16-1.83,8.46-2.44,12.79.23,13.48,1.79,27.92,4.9,45.44,3.73,19.94,9.69,45.74,22.88,68.43,4.9,7.84,9.92,15.27,17.34,20l1.27.9c9.44,6.71,19.19,13.65,28.09,21.35l.1.09.13,0c23,4.18,45.52,8.71,66.88,13.49l.84.19c10.86,2.52,22.09,5.13,32.78,9.15,7.22,1.21,14.64,1.71,21.82,2.19,3.89.26,7.92.53,11.89.91,3.84.14,7.75.4,11.52.64,5.44.36,11.06.72,16.57.76,6.56.57,13.23.73,19.68.88,5.33.12,10.83.25,16.26.62,31.43.69,60.78,1,88.5,1,53.2,0,100.38-1.28,144.64-3.87,4.05-.39,8.19-.67,12.19-.93,7.37-.49,15-1,22.52-2.25,10.54-4,21.73-6.59,32.54-9.1l1-.24c21.46-4.79,43.94-9.32,66.84-13.48l.14,0,.1-.09c7.63-6.64,16-12.65,24.07-18.46,3.23-2.32,6.57-4.72,9.87-7.18,10.25-10,16.63-23,20.53-32,7.72-18.19,13.16-38.87,17.1-65.11,1.58-11.61,3-23,2.83-34.56-.51-2.6-1-5.2-1.58-7.8C717.55,241.85,716.22,235.37,715.23,229Zm1.38,61.38c-3.93,26.14-9.34,46.75-17,64.85-3.87,8.87-10.18,21.8-20.26,31.59-3.24,2.41-6.58,4.81-9.81,7.13-8.06,5.8-16.4,11.79-24,18.43-22.86,4.15-45.32,8.68-66.75,13.46l-1,.24c-10.85,2.52-22.07,5.13-32.57,9.12-7.38,1.21-15,1.72-22.33,2.21-4,.27-8.15.55-12.2.93-67.29,3.94-141.34,4.84-233,2.83-5.42-.36-10.94-.49-16.28-.62-6.44-.15-13.09-.31-19.66-.87-5.52,0-11.13-.41-16.56-.76-3.78-.25-7.69-.5-11.52-.65-4-.38-8-.65-11.89-.91-7.15-.48-14.55-1-21.62-2.15-10.65-4-21.92-6.64-32.81-9.17l-.84-.2c-21.33-4.77-43.8-9.3-66.79-13.47C70.7,404.65,61,397.72,51.55,391l-1.29-.92c-7.26-4.59-12.21-11.92-17-19.65-13.1-22.55-19-48.24-22.75-68.1-3.1-17.46-4.65-31.85-4.89-45.2.6-4.22,1.53-8.5,2.42-12.64,1.87-8.64,3.81-17.57,2.94-26.66-.83-5.89-2-11.8-3.22-17.52-.7-3.43-1.43-7-2.06-10.39C5.57,178.28,7,166.65,8.52,155.73,12.37,130.22,17.62,110,25,92.21,29,83,35.41,69.56,45.84,59.46c3.43-2.56,7-5.1,10.39-7.55,7.08-5.08,14.41-10.32,21.13-16.08l.55-.44a10.8,10.8,0,0,1,2-1.38l14.42-2.8c24.55-4.75,49.93-9.66,74.44-16.34a44.63,44.63,0,0,0,6.27-2,31.16,31.16,0,0,1,8.58-2.34c8.79-.89,18.21-1.64,29.61-2.35,4.4,5.86,11.54,9.9,20.13,11.38,22.06,4.35,44.87,5.34,66.92,6.28,4.75.2,9.49.41,14.25.65,8,0,16.07.26,23.9.54s15.74.55,23.63.53V27h1v.5c7.88,0,15.86-.26,23.59-.53s15.91-.55,23.89-.54c4.68-.23,9.36-.43,14-.63,22.13-.95,45-1.93,67.15-6.29,8.6-1.49,15.74-5.53,20.15-11.39l4.55.31c9.2.61,18.72,1.24,28,2.46,12.22,4.56,24.95,7.45,37.26,10.24,20.19,4.45,41,8.63,61.79,12.42,1.74.11,3,1.22,4.42,2.4.32.27.63.54.94.78,6.82,5.72,14.17,11,21.27,16.06,2.87,2.06,5.75,4.11,8.55,6.17,7.46,6.78,12.62,15.5,16.28,22.34C703,97,709,115.31,713.72,139c3.65,19,5.5,34.87,5.81,49.86-.59,4.4-1.55,8.87-2.48,13.19-1.89,8.76-3.84,17.81-2.81,27,1,6.45,2.34,12.95,3.63,19.23.53,2.6,1.07,5.19,1.57,7.7C719.58,267.44,718.18,278.78,716.6,290.34Z" transform="translate(0 0)"/><path class="cls-2" d="M723.7,249.61c-.42-1.67-.85-3.4-1.11-5.12-.36-2.15-.8-4.34-1.23-6.45-1.26-6.21-2.56-12.62-1.86-19,.91-6.58,2.29-13.19,3.63-19.58.63-3,1.29-6.15,1.88-9.23v-.1c-.21-11.88-1.44-24.58-4-41.19-4.09-24.83-9.57-44.45-17.24-61.76C697.33,73,690.58,62.75,682.46,55c-3-2.18-6-4.36-8.95-6.46-6.94-5-14.11-10.1-20.8-15.64-.54-.41-1-.87-1.58-1.35-1.6-1.44-3.25-2.92-5.53-3.09C626.32,25,607,21.09,588.07,17l-.79-.17c-13.79-3.05-28.05-6.21-41.5-11.16l-.11,0C528,3.44,510,2.51,492.5,1.6c-5.37-.28-10.74-.56-16.12-.87-6.47-.22-13-.38-19.41-.54L452.5.08C450.36.12,450.18,2,450,3.37a6.35,6.35,0,0,1-.26,1.52l0,.1a4.58,4.58,0,0,1-5.18,3.55q-33.05,0-66.11,0c-32.46,0-66,0-99.05,0h0a3.65,3.65,0,0,1-2.48-.88c-1.26-1.09-2-3.2-2.3-6.45l0-.18V.92L274.4.79c-1.51-1-3.23-.83-4.9-.7a17.53,17.53,0,0,1-1.91.08C245.12.77,222,2,197,3.82c-2.24.29-4.56.45-6.8.61-5.63.39-11.46.8-16.71,3.25-15.34,4.92-31.41,8.28-46.95,11.52l-9.19,1.93C103.46,24,91.06,26.37,79.49,28.46c-2.12.12-3.63,1.44-5.1,2.72l-.87.74c-6.43,5.5-13.43,10.52-20.21,15.37-3.71,2.66-7.55,5.41-11.3,8.25C31,66.67,22.67,81.29,15.15,103,6.52,129,1.43,157.92,0,189.12c.64,4.42,1.6,8.87,2.52,13.18S4.38,210.78,5,215.1C6.8,223,5.18,231,3.62,238.74c-.38,1.9-.78,3.86-1.12,5.79-.26,1.71-.69,3.44-1.11,5.12A31.25,31.25,0,0,0,0,259.08,340.25,340.25,0,0,0,11.52,331.6c6,20.9,13,36.56,22.11,49.29l.49.65c2.84,3.74,5.78,7.6,9.58,10.57l5.73,4.1c7.79,5.56,15.85,11.31,23.37,17.53.5.37,1,.8,1.45,1.26a8.59,8.59,0,0,0,4.2,2.58l10.81,2.08c25.44,4.88,51.74,9.92,77.19,16.76a56,56,0,0,1,6.85,2.17,38.55,38.55,0,0,0,10.36,2.71c34.78,3.12,73,5,116.91,5.66,15.77.52,31.72.63,47.44.63l15.9,0c8.21,0,16.41,0,24.62,0,10,.09,20.25-.18,30.12-.43,4.29-.11,8.59-.22,12.88-.31,20.25-.2,40.81-1.15,60.69-2.06l8.38-.38c4.59-.36,9.28-.67,13.8-1,10.11-.66,20.56-1.35,30.78-2.66l.1,0c18.43-6.47,37.91-10.48,56.75-14.36q5.2-1.07,10.4-2.16c5.29-1.16,10.72-2.17,16-3.13,6.51-1.2,13.24-2.44,19.77-4l.12,0,.09-.08c10.54-9,22.36-17.31,31.86-24,3.86-2.64,6.83-6.4,9.45-9.73,8-10.42,14.49-23.15,20.3-40.08,8.35-25,13.27-52.52,15.05-84A31.36,31.36,0,0,0,723.7,249.61Zm.36,9.49c-1.78,31.38-6.69,58.77-15,83.73-5.77,16.81-12.17,29.46-20.14,39.78-2.58,3.27-5.5,7-9.24,9.52-9.49,6.69-21.29,15-31.84,24-6.47,1.54-13.15,2.78-19.61,4-5.26,1-10.69,2-16,3.14q-5.19,1.09-10.39,2.15c-18.86,3.88-38.36,7.9-56.83,14.38-10.17,1.31-20.59,2-30.67,2.65-4.53.3-9.22.6-13.8,1l-8.36.38c-19.87.91-40.42,1.86-60.65,2.06-4.3.08-8.59.2-12.89.31-9.86.26-20.06.52-30.09.43-8.21,0-16.42,0-24.62,0-20.75,0-42.21.1-63.32-.6-43.86-.69-82.08-2.54-116.85-5.66a37.74,37.74,0,0,1-10.1-2.65,56.75,56.75,0,0,0-7-2.2c-25.46-6.84-51.79-11.89-77.24-16.77L78.65,416.6a7.74,7.74,0,0,1-3.71-2.33c-.49-.45-1-.92-1.51-1.31-7.52-6.23-15.6-12-23.41-17.56l-5.71-4.09c-3.68-2.87-6.58-6.68-9.39-10.37l-.48-.64c-9-12.63-16-28.19-22-49A339.23,339.23,0,0,1,1,259a30.5,30.5,0,0,1,1.33-9.12c.43-1.7.87-3.45,1.13-5.2.33-1.91.73-3.87,1.11-5.76,1.58-7.85,3.22-16,1.4-24-.64-4.31-1.57-8.64-2.47-12.83s-1.87-8.72-2.5-13c1.4-31,6.47-59.88,15.07-85.79,7.46-21.51,15.67-36,26.57-47,3.69-2.79,7.52-5.53,11.23-8.19,6.79-4.86,13.81-9.89,20.27-15.42l.88-.76c1.4-1.22,2.72-2.37,4.56-2.48,11.64-2.1,24-4.5,37.94-7.33l9.19-1.93c15.56-3.25,31.65-6.61,47.1-11.57,5.15-2.4,10.88-2.8,16.42-3.18,2.26-.16,4.59-.32,6.84-.61,25-1.85,48.07-3,70.5-3.66a19,19,0,0,0,2-.08,7.33,7.33,0,0,1,4.08.43c.21,2.25.92,8,5.75,8h0c33,.07,66.58.05,99.05,0q33.06,0,66,0a5.59,5.59,0,0,0,6.22-4.34,7.44,7.44,0,0,0,.3-1.73c.16-1.64.34-2.36,1.45-2.38l4.45.11c6.36.16,12.94.32,19.39.54,5.37.31,10.74.59,16.11.87,17.42.9,35.43,1.84,53,4,13.5,5,27.78,8.12,41.58,11.17l.79.18c18.91,4.1,38.28,8,57.62,11.48,2,.15,3.45,1.46,5,2.85.53.48,1.08,1,1.63,1.39,6.7,5.56,13.89,10.7,20.85,15.68,2.94,2.1,6,4.28,8.89,6.41,8,7.62,14.66,17.72,21,31.8,7.64,17.22,13.09,36.77,17.16,61.5,2.54,16.53,3.76,29.18,4,41-.59,3.06-1.24,6.16-1.87,9.17-1.34,6.41-2.73,13-3.64,19.66-.72,6.56.6,13.05,1.87,19.33.43,2.1.87,4.28,1.22,6.41.27,1.76.71,3.51,1.13,5.21A30.59,30.59,0,0,1,724.06,259.1Z" transform="translate(0 0)"/><path class="cls-2" d="M234.43,18c19.56,3.85,39.77,4.85,59.32,5.82q5.35.27,10.71.55c7.51.13,15.14.38,22.52.61,11.31.36,22.9.72,34.47.72q6.57,0,13.12-.18c8,0,16.37-.2,25-.61l3.05-.09c26-.75,52.8-1.52,79-5.21l1.41-.23c9.65-1.54,20.59-3.29,27-11.76l.58-.76-1,0c-6-.26-12.05-.57-17.92-.88-12-.63-24.37-1.27-36.59-1.44h-.42l-.08.41c-1,5-5.38,8.51-10.1,8q-82,0-164,0c-5.15.48-9.12-3.72-10-8l-.08-.41H270c-12.21.17-24.61.81-36.59,1.44-5.87.31-11.95.62-17.92.88l-1,0,.58.76C219.16,13,225.66,16.46,234.43,18ZM233.47,7c11.84-.62,24.08-1.26,36.14-1.43,1.24,5.3,5.88,8.91,10.91,8.44q82,0,163.91,0c5.06.5,9.81-3.19,11-8.44,12.06.18,24.3.81,36.14,1.43,5.56.29,11.29.59,17,.84C502.34,15.32,492,17,482.83,18.44l-1.4.22c-26.11,3.68-52.93,4.45-78.86,5.2l-3.06.09c-8.6.41-17,.63-25,.61-15.85.46-32-.05-47.54-.54-7.38-.23-15-.47-22.52-.61q-5.34-.29-10.7-.55c-19.51-1-39.69-2-59.18-5.81-8.09-1.46-14.17-4.56-18.09-9.23C222.19,7.58,227.92,7.28,233.47,7Z" transform="translate(0 0)"/><path class="cls-2" d="M217.75,313.48c1-.05,2-.09,3-.1l3.07,0-2.9-1A97.87,97.87,0,0,1,175.61,280a96.36,96.36,0,0,1-6-109.13,97.14,97.14,0,0,1,58.76-43.25l4.73-1.21-4.88.22c-1.42.07-2.9,0-4.34,0-3.44-.11-7-.23-10.31,1.15a100.89,100.89,0,0,0-5.06,184.56,13.58,13.58,0,0,0,6.27,1.25C215.8,313.58,216.78,313.53,217.75,313.48Zm-8.76-2a99.9,99.9,0,0,1,5-182.73h0a18.18,18.18,0,0,1,7.06-1.13c.94,0,1.89,0,2.83.06l.72,0a98.1,98.1,0,0,0-55.81,42.73,97.36,97.36,0,0,0,6,110.27,98.91,98.91,0,0,0,43.27,31.82l-.4,0C214.74,312.64,211.67,312.79,209,311.44Z" transform="translate(0 0)"/><path class="cls-2" d="M232.52,313.55l.14-.35c1.22-3.17,2.67-6.45,5.09-9,3.26-3.54,7.64-5.6,11.51-7.13,5.26-2.16,10.36-4.84,15.3-7.44a153.47,153.47,0,0,1,17.79-8.4c3.75-1.31,7.68-2.46,11.48-3.56,9.55-2.78,19.42-5.66,27.75-11.49l.15-.17c9.35-16.6,17.5-31.51,24.92-45.57l.06-.11v-.12a93.51,93.51,0,0,0-18.56-55.53,94.89,94.89,0,0,0-52.52-35.54,67.41,67.41,0,0,0-19.07-2.32c-1.93,0-3.9,0-5.81,0a88.87,88.87,0,0,0-16.38.9,95,95,0,0,0-30.66,175.34c8.71,4.86,18.19,9.49,28.45,10.43Zm-28.33-11.33a94,94,0,0,1,30.35-173.49,73.73,73.73,0,0,1,13-.89l3.19,0c1.91,0,3.89,0,5.84,0h0a66.32,66.32,0,0,1,18.8,2.28,93.9,93.9,0,0,1,52,35.16A92.52,92.52,0,0,1,345.7,220.1c-7.38,14-15.49,28.83-24.79,45.34-8.17,5.69-17.93,8.53-27.37,11.28-3.81,1.11-7.75,2.26-11.54,3.58a154.21,154.21,0,0,0-17.92,8.46c-4.91,2.58-10,5.26-15.21,7.39-3.73,1.49-8.46,3.67-11.87,7.38a26.52,26.52,0,0,0-5.16,8.94C221.93,311.48,212.69,307,204.19,302.22Z" transform="translate(0 0)"/><path class="cls-2" d="M566.81,182.4a102.23,102.23,0,0,1,2,72.29c-8.61,25-27.51,46.07-51.83,57.87l-2,1,2.23,0c2.21,0,4.49,0,6.7,0l4.53,0c10,0,20-.57,29-5.51,11.82-6.24,20.54-19.19,25.21-37.46,4.36-17.52,5.34-35.81,6.29-53.5.18-3.36.36-6.72.56-10.08.51-10-.14-20.24-.77-30.09l-.19-3c-1-15.46-5.72-27.23-13.9-35-8-7.67-19.77-11.8-35-12.28h0c-5.46,0-10.92,0-16.38,0H509.78l2.31,1A101.81,101.81,0,0,1,566.81,182.4ZM523.2,127.64c5.46,0,10.91,0,16.36,0,15,.47,26.55,4.51,34.36,12,8,7.58,12.58,19.12,13.59,34.32l.19,3c.63,9.83,1.28,20,.77,30-.2,3.36-.38,6.72-.56,10.08-.95,17.64-1.92,35.89-6.26,53.31-3.21,12.54-10.1,29.11-24.72,36.83-10.09,5.56-21.75,5.46-33,5.36l-4.48,0h-.09a102.33,102.33,0,0,0-4.64-184.87Z" transform="translate(0 0)"/><path class="cls-2" d="M501.23,126.62c-1.43,0-2.92.09-4.34,0l-4.84-.23,4.69,1.22c23.21,6,43.91,20.69,56.77,40.25A96.24,96.24,0,0,1,541,289.54a96.7,96.7,0,0,1-36.87,22.87l-2.89,1,3.05,0c1,0,2,0,3,.1s2,.1,3,.1a13.39,13.39,0,0,0,6.21-1.24A100.91,100.91,0,0,0,569.92,192c-8.55-28.83-31.21-53.55-59.15-64.52C507.67,126.41,504.4,126.52,501.23,126.62ZM569,192.32a99.91,99.91,0,0,1-52.87,119.12c-2.66,1.35-5.72,1.19-8.68,1l-.45,0a97.4,97.4,0,0,0,34.76-22.21,97.24,97.24,0,0,0,12.62-122.91,98.92,98.92,0,0,0-53.84-39.69l.76,0c3.07-.1,6.25-.2,9.15.83C538.07,139.31,560.5,163.78,569,192.32Z" transform="translate(0 0)"/><path class="cls-2" d="M478.53,126.85c-2,0-4,0-6,0-5.66,0-11.5-.08-17.19,1a95.27,95.27,0,0,0-76.77,86.21c0,.61-.07,1.23-.12,1.85-.2,2.41-.4,4.91,1.14,7q6.41,11.63,12.78,23.3,5.1,9.33,10.2,18.63a7.25,7.25,0,0,0,3.31,3.09c8.45,4.83,17.9,7.61,27,10.29,2.49.73,5.06,1.49,7.56,2.27,7,2.32,13.65,5.82,20.07,9.2,4.91,2.59,10,5.26,15.25,7.41,8.32,2.8,14.53,8.81,16.62,16.08l.11.38.4,0c6.11-.31,11.9-2.63,17-4.69a95,95,0,0,0,2.62-174.21C500.53,129.23,489.08,126.6,478.53,126.85Zm82,59.18a94,94,0,0,1-51,121.88c-4.93,2-10.5,4.21-16.3,4.59-2.28-7.42-8.66-13.52-17.12-16.36C471,294,465.91,291.35,461,288.77c-6.46-3.4-13.14-6.91-20.23-9.26-2.51-.79-5.09-1.54-7.58-2.27-9.09-2.67-18.48-5.43-26.85-10.21a6.15,6.15,0,0,1-2.9-2.67q-5.12-9.31-10.21-18.65c-4.25-7.77-8.5-15.55-12.81-23.36-1.35-1.82-1.16-4.13-1-6.36.05-.64.1-1.28.12-1.88a94.27,94.27,0,0,1,76-85.27,72.94,72.94,0,0,1,13.71-1l3.28,0c2,0,4,0,6,0h0c10.4-.24,21.71,2.35,33.61,7.69A94.59,94.59,0,0,1,560.56,186Z" transform="translate(0 0)"/><path class="cls-2" d="M279.09,126.66c-1.3.05-2.64.11-3.93.09l-4.46-.07,4.33,1.06a97,97,0,0,1,55.13,37.59A95.32,95.32,0,0,1,347.6,212c.05.82.15,1.68.25,2.5.34,2.85.68,5.8-.82,8.27-7.49,13.58-15,27.39-22.47,41l-.89,1.64,1.6-1c.53-.33,1.09-.64,1.66-1,2.16-1.2,4.39-2.45,5.59-4.77q3.2-5.84,6.39-11.69c3.93-7.19,8-14.62,12-21.93.16-.33.34-.66.52-1a8.54,8.54,0,0,0,1.18-3.15,101,101,0,0,0-62.28-93C286.77,126.34,282.86,126.5,279.09,126.66ZM336,167.48a100.4,100.4,0,0,1,15.68,53.46,7.72,7.72,0,0,1-1.07,2.73c-.19.35-.37.69-.52,1-4,7.28-8.1,14.72-12,21.91q-3.19,5.85-6.4,11.7c-1.06,2.07-3.16,3.24-5.19,4.37l-.15.08c7.15-13.14,14.42-26.42,21.61-39.46,1.67-2.75,1.3-5.87.95-8.89-.1-.85-.19-1.66-.25-2.47A96.33,96.33,0,0,0,331,164.74a98.21,98.21,0,0,0-52.27-37.06l.42,0c3.66-.15,7.44-.31,10.83,1.21A100.73,100.73,0,0,1,336,167.48Z" transform="translate(0 0)"/><path class="cls-2" d="M240.86,313.34a82.65,82.65,0,0,1,8.61.19c4,.53,7.45,2.57,10.83,4.55,1.09.63,2.21,1.29,3.33,1.89l.1.05h.12c2,.07,4,.19,6,.3,3.27.19,6.58.38,9.88.38a45.28,45.28,0,0,0,16.59-2.63c9.93-3.45,19-9,27.75-14.38,9.62-5.9,19.56-12,30.63-15.27a27.91,27.91,0,0,1,16.45.24c10.74,3.32,20.44,9.27,29.83,15s19.35,11.87,30.3,15.21c6.25,2.11,12.86,1.86,19.26,1.62,1.69-.06,3.37-.13,5.09-.15.67-.07,1.37-.07,2.1-.08,2,0,4,0,5.64-1.3,3.43-2.3,8-5,13.15-5.57,2.49-.12,5-.1,7.49-.08,2,0,4.06,0,6.1,0l.74,0-.3-.68c-1.23-2.79-2.76-6-5.38-8.26-3-2.9-6.92-4.53-10.67-6.1-.89-.37-1.77-.74-2.63-1.12-4.07-1.83-8.09-4-12-6-7-3.68-14.18-7.48-21.93-9.79l-1.09-.32c-7.19-2.08-14.62-4.22-21.72-6.93-6.58-2.5-12.67-6.25-18.55-9.88a123.07,123.07,0,0,0-17.11-9.32c-3.72-1.66-7.22-1.38-9.37.73-2.22,1.75-2.21,4.5-2.19,6.92,0,.74,0,1.44,0,2.11-3.47.12-7.06.12-10.67,0,0-.66,0-1.35,0-2.07,0-2.45,0-5.22-2.18-6.94-2.13-2.11-5.63-2.39-9.33-.77-6.06,2.51-11.7,6-17.16,9.35-5.9,3.63-12,7.39-18.58,9.9-7.05,2.68-14.43,4.81-21.57,6.88l-1.2.35c-7.75,2.32-15,6.13-22,9.81a169.83,169.83,0,0,1-15.66,7.58c-7.42,2.61-12.89,7.69-15,13.94l-.21.64.67,0C236.94,313.39,238.93,313.36,240.86,313.34Zm9-13.68A170.33,170.33,0,0,0,265.64,292c6.94-3.66,14.12-7.44,21.78-9.73l1.2-.35c7.16-2.07,14.56-4.21,21.65-6.91,6.68-2.54,12.82-6.32,18.75-10,5.43-3.34,11-6.8,17-9.28,1.25-.55,5.52-2.12,8.28.6,1.88,1.45,1.86,3.75,1.84,6.18a22.7,22.7,0,0,0,.08,2.62l0,.43.43,0c3.94.15,7.85.16,11.63,0l.43,0,.05-.42a22.32,22.32,0,0,0,.09-2.66c0-2.42,0-4.7,1.83-6.15l0,0c2.74-2.72,7-1.11,8.3-.54a122.28,122.28,0,0,1,17,9.25c5.93,3.65,12.06,7.42,18.72,10,7.14,2.72,14.59,4.88,21.8,7l1.09.31c7.65,2.28,14.81,6.06,21.74,9.72,3.91,2.06,8,4.19,12,6,.88.39,1.76.76,2.66,1.13,3.67,1.54,7.46,3.13,10.39,5.91a20.57,20.57,0,0,1,4.84,7.24c-1.77,0-3.57,0-5.32,0-2.47,0-5,0-7.58.08-5.37.58-10.1,3.37-13.65,5.75-1.42,1.09-3.19,1.1-5.07,1.11-.73,0-1.48,0-2.15.08-1.68,0-3.37.08-5.07.15-6.31.24-12.83.48-18.92-1.58-10.84-3.3-20.62-9.3-30.08-15.11s-19.2-11.77-30-15.13a28.89,28.89,0,0,0-17-.24c-11.19,3.31-21.2,9.45-30.87,15.38-8.71,5.35-17.73,10.87-27.57,14.29-8.28,3.22-17.32,2.69-26.06,2.19-2-.11-4-.23-5.93-.3-1.07-.57-2.15-1.2-3.2-1.81-3.46-2-7-4.12-11.22-4.68a82.43,82.43,0,0,0-8.74-.19c-1.69,0-3.43,0-5.15,0C237.85,306.68,243,302.08,249.86,299.65Z" transform="translate(0 0)"/><path class="cls-2" d="M447,126.7a55.29,55.29,0,0,0-8.56.11h0a36.51,36.51,0,0,0-8.3,3.19l-1.5.72a100.82,100.82,0,0,0-51.07,58.73,104.23,104.23,0,0,0-5.15,30.62,6.57,6.57,0,0,0,1,3.69c.13.26.27.52.4.81,5.87,10.66,12.15,22.1,18.34,33.52,1.25,2.79,3.83,4.25,6.33,5.66l1.31.75,1.56.92-.86-1.59c-7.3-13.44-14.86-27.26-22.48-41.07a6.81,6.81,0,0,1-1.06-3.72,96.49,96.49,0,0,1,73-91.27l3.76-.9-3.87-.08C449,126.78,448,126.74,447,126.7Zm-52.11,36.91A98.22,98.22,0,0,0,376,219a7.83,7.83,0,0,0,1.18,4.25c7.33,13.28,14.6,26.57,21.64,39.52-2.29-1.29-4.62-2.66-5.72-5.11-6.21-11.46-12.49-22.9-18.35-33.53-.13-.27-.26-.54-.4-.82a5.75,5.75,0,0,1-.93-3.17,103.37,103.37,0,0,1,5.11-30.37,99.81,99.81,0,0,1,50.56-58.14l1.5-.72a35.86,35.86,0,0,1,8-3.11,51.38,51.38,0,0,1,7.84-.12A97.94,97.94,0,0,0,394.94,163.61Z" transform="translate(0 0)"/><path class="cls-2" d="M166.81,276.1c-18.44-28-21.31-65.85-7.3-96.49a102.36,102.36,0,0,1,53.5-52l2.49-1-2.7.09c-4.3.14-8.71.07-13,0-10.43-.16-21.21-.33-31.53,2.5-10.63,2.86-19.54,9.54-24.46,18.31-5.83,9.8-7,21.43-7.64,31.58-.08,2.71-.22,5.47-.35,8.14-.29,5.87-.59,11.93-.29,17.92q.25,4.36.47,8.73c.82,15.7,1.67,31.94,4.47,47.72,2,10.37,5.7,25.5,15.44,37a41.64,41.64,0,0,0,25.54,14.05c5.87,1.07,11.9,1,17.73.92,2.86,0,5.82-.08,8.71,0l2.32.08-2.08-1A103,103,0,0,1,166.81,276.1Zm32.37,36.4c-5.78.08-11.77.16-17.56-.9a40.64,40.64,0,0,1-24.94-13.71c-9.58-11.32-13.28-26.28-15.22-36.53-2.79-15.71-3.64-31.92-4.46-47.59q-.23-4.37-.47-8.74c-.3-5.93,0-12,.29-17.82.13-2.67.27-5.44.35-8.15.63-10,1.79-21.5,7.51-31.13,4.79-8.55,13.48-15,23.85-17.84h0c7.78-2.14,15.87-2.55,23.87-2.55,2.47,0,4.94,0,7.38.08,3.44.05,7,.11,10.48.06a103.31,103.31,0,0,0-51.68,51.51c-14.15,30.94-11.25,69.19,7.37,97.45a103.74,103.74,0,0,0,39.75,35.83C203.53,312.45,201.33,312.48,199.18,312.51Z" transform="translate(0 0)"/><path class="cls-2" d="M273.68,368.46c-.46,1.19-.91,2.39-1.33,3.57-.57,1.49-1.13,3-1.68,4.48-1.46,3.94-3,8-4.81,11.86L265,390l1.53-1c7.6-5.16,14.44-7.77,20.89-8q44.08,0,88.15,0h52.88c1.14,0,2.29,0,3.44,0,4.35-.07,8.85-.15,13,1.23A50,50,0,0,1,458.51,389l1.58,1.13-.83-1.75c-1.88-3.94-3.43-8.12-4.92-12.16-.51-1.39-1-2.78-1.55-4.15-.43-1.21-.9-2.42-1.36-3.64-1.54-4-3.12-8.17-3.57-12.5a42.41,42.41,0,0,1,11.51-33.51l.83-.87-1.21,0c-1.9.05-3.81.14-5.73.24-7.89.39-16.05.79-23.62-2-10.44-3.33-19.91-9.15-29.07-14.78-9.9-6.08-20.13-12.38-31.65-15.58-5.94-1.67-12.55-.79-20.82,2.78s-16,8.17-23.49,12.77c-9.36,5.75-19,11.69-29.8,15-7.29,2.5-15.14,2.12-22.73,1.75-2-.1-4-.2-6-.24l-1.2,0,.83.87a42.31,42.31,0,0,1,11.51,33.48C276.8,360.26,275.21,364.42,273.68,368.46Zm-6.41-45.84c1.58.05,3.19.13,4.75.21,7.69.38,15.63.77,23.09-1.79,10.85-3.36,20.59-9.34,30-15.12,7.45-4.57,15.16-9.3,23.35-12.7h0c8-3.48,14.45-4.34,20.16-2.74,11.39,3.16,21.56,9.42,31.4,15.46,9.21,5.66,18.74,11.52,29.27,14.87,7.74,2.8,16,2.4,24,2,1.51-.07,3-.15,4.52-.2a43.37,43.37,0,0,0-11,33.42c.46,4.46,2.07,8.68,3.63,12.75.46,1.2.92,2.41,1.36,3.62.53,1.38,1,2.76,1.55,4.15,1.29,3.5,2.63,7.11,4.19,10.59a51.49,51.49,0,0,0-12.28-5.87c-4.36-1.42-8.94-1.35-13.38-1.28-1.14,0-2.28,0-3.42,0H375.62q-44.08,0-88.17,0c-6.24.2-12.78,2.55-20,7.18,1.53-3.4,2.83-6.92,4.1-10.34.55-1.49,1.11-3,1.68-4.48.42-1.19.88-2.38,1.33-3.57,1.56-4.09,3.18-8.32,3.63-12.81A43.28,43.28,0,0,0,267.26,322.61Z" transform="translate(0 0)"/><path class="cls-2" d="M64.05,98.92A149.43,149.43,0,0,0,57,134.1a816.33,816.33,0,0,0,1.11,156C60,307.86,63.47,330.93,73.33,352c7.53,16.1,18.34,29,31.24,37.17,13.85,9,31.84,13.75,52,13.77H174c20.81,0,42.33,0,63.5,0,10-.16,23.12-4.37,27.39-15.69,2.19-5.21,4.19-10.59,6.12-15.79.81-2.2,1.63-4.4,2.46-6.58,6.61-16.21.15-36.43-14.7-46-4.71-2.89-9.19-4.25-13.31-4.07q-13.89,0-27.77,0h-16.2l-2.25,0c-9.23.09-18.77.18-27.45-3.4-11.2-4.17-20.71-14.08-26.1-27.17-7.64-18.44-9-38.76-10.27-58.41l-.18-2.69a291.69,291.69,0,0,1,.77-55.93c1.62-12.49,6.8-23.14,14.58-30,11-9.88,26.2-11.84,37-11.74H531.55c7-.05,15.83-.12,23.9,2a42.75,42.75,0,0,1,23.37,14.29c5.77,7,9.3,16.31,10.5,27.55a281.68,281.68,0,0,1,.89,47.71q-.21,3.18-.4,6.37c-1.09,17.57-2.21,35.74-7.49,52.82-4.29,13.94-11.42,24.58-20.62,30.78-10,6.88-21.9,8-30.14,7.8q-12.39,0-24.78,0-13.6,0-27.18,0c-4.53-.19-9.37,1.42-14.39,4.79C454.94,326.71,448.59,339.88,449,353c.13,5.73,2.21,11.08,4.22,16.26.72,1.84,1.46,3.74,2.1,5.65.65,1.59,1.26,3.24,1.85,4.84A63.28,63.28,0,0,0,463,392.46c5.7,6.71,15,10.49,25.82,10.49q.85,0,1.71,0,17.55,0,35.1,0c14.4,0,29.29,0,43.94,0,15-.1,36.55-3,54.53-16.21,13.91-10,25-25.78,32.16-45.54,7.12-19.59,9.78-40.3,11.44-58a813.63,813.63,0,0,0,0-153.3c-3.05-27.66-11.89-49.42-26.27-64.68-13.25-14.35-32.94-22.88-54-23.42-92.6-.12-186.75-.1-277.8-.08q-83.5,0-167,0c-18.62-.28-36.15,5-49.35,15C76.78,68.81,68.29,86.35,64.05,98.92Zm78.52-56.25h0q83.5,0,167,0c91.05,0,185.2,0,277.79.08,20.81.53,40.25,9,53.32,23.1,14.23,15.1,23,36.67,26,64.1a812.53,812.53,0,0,1,0,153.11c-1.66,17.61-4.3,38.25-11.38,57.73s-18.05,35.17-31.8,45.08c-17.76,13.06-39.14,15.92-53.95,16-14.64,0-29.53,0-43.93,0q-17.54,0-35.12,0c-11.19.41-20.95-3.27-26.71-10.05a62.82,62.82,0,0,1-5.65-12.42c-.59-1.6-1.21-3.26-1.85-4.84-.64-1.9-1.39-3.81-2.11-5.67-2-5.09-4-10.36-4.16-15.92-.44-12.85,5.73-25.68,15.73-32.7,4.58-3.07,9-4.63,13.13-4.63h.67q13.61,0,27.21,0,12.39,0,24.76,0c8.36.24,20.49-.94,30.71-8,9.4-6.33,16.66-17.16,21-31.32,5.31-17.19,6.44-35.42,7.53-53.05q.2-3.19.4-6.36a282.77,282.77,0,0,0-.89-47.88c-1.22-11.45-4.82-20.9-10.72-28.08a43.74,43.74,0,0,0-23.9-14.63c-8.19-2.16-17-2.09-24.15-2H187.62c-11-.09-26.47,1.9-37.67,12-8,7-13.25,17.88-14.91,30.62a292.69,292.69,0,0,0-.77,56.12l.18,2.68c1.3,19.73,2.64,40.14,10.34,58.73,5.5,13.35,15.22,23.46,26.66,27.72,8.86,3.65,18.51,3.56,27.83,3.47l2.24,0h16.19q13.88,0,27.8,0c3.94-.17,8.23,1.14,12.76,3.92,14.45,9.35,20.74,29,14.3,44.83-.83,2.19-1.65,4.39-2.46,6.59-1.92,5.19-3.92,10.56-6.11,15.77-4.11,10.87-16.83,14.9-26.47,15.06-21.16.06-42.68,0-63.49,0H156.62c-20,0-37.81-4.73-51.5-13.61-12.75-8.11-23.42-20.82-30.88-36.75C64.44,330.64,61,307.67,59.1,290A815.34,815.34,0,0,1,58,134.19a148.42,148.42,0,0,1,7-35C69.19,86.8,77.59,69.46,93.83,57.46,106.86,47.65,124.18,42.4,142.57,42.67Z" transform="translate(0 0)"/><path class="cls-2" d="M362.06,40v-.5H137.56c-17.25.39-33.81,6-46.61,15.94-16.43,12.38-25,30.18-29.3,42.93-6.65,19.41-7.76,40.2-8.77,60.33l-.12.09a20.51,20.51,0,0,0-15.33-5.1A8.33,8.33,0,0,0,31,162c0,40.16,0,80.89,0,121a8.39,8.39,0,0,0,8.58,8.59c.57,0,1.15,0,1.74,0,2.82.08,5.73.16,8.1-1.58,1.67-1.09,2.44-2.83,3.2-4.52.17-.37.33-.75.51-1.11l1.92.35c2.4,22.63,5.42,41.38,12.3,59.24,7.06,18.48,17.07,32.82,29.74,42.63,13.31,10.58,31.24,17,50.47,18.14,5.17.49,10.44.47,15.52.45H228.5c8.56.09,17.41.17,25.24-3.73a32.12,32.12,0,0,0,6.35-4c.86-.63,1.74-1.29,2.64-1.88,6.62-.24,13.37-.2,19.9-.16,4.24,0,8.63,0,12.92,0,.8,0,1.62,0,2.44,0,3.31-.06,6.75-.11,9.58,1.71,4.8,3,8.89,7,12.85,10.94,4.33,4.29,8.82,8.72,14.29,11.82a56.53,56.53,0,0,0,27.88,7.25c13.45,0,26.72-4.67,36.45-13.66,2-1.77,3.9-3.68,5.75-5.52,3.92-3.89,8-7.92,12.76-10.85,2.84-1.8,6.25-1.74,9.56-1.68.85,0,1.7,0,2.52,0,4.31.05,8.7,0,12.94,0,6.49,0,13.19-.07,19.77.16,1,.64,2,1.38,3,2.09a29.07,29.07,0,0,0,4.66,3c5.44,3,12.16,4.43,20.52,4.43q17.59,0,35.18,0c14.74,0,30,0,45,0,15.76-.27,38.42-3.63,56.86-18.11,16-12.22,27.69-31.27,34.75-56.64,4.28-15.1,6.24-31,7.88-46l1.86,0c.8,2.19,1.58,4.09,4.13,5.62a11.57,11.57,0,0,0,5.3,1.55c3.54.19,7.56.41,10.29-2.45,2.37-2.16,2.57-5.5,2.48-8.15,0-21,0-42.42,0-63.11q0-27.93,0-55.82a8.08,8.08,0,0,0-2.25-6,9.19,9.19,0,0,0-6.53-3h-1.59c-5,0-9.55.53-10.5,5.94l-1.07,1a154.54,154.54,0,0,0-.95-17.1c-1.19-20.56-4.35-36.56-9.92-50.35-4.8-12.11-14.13-28.91-31.31-40.1a79.76,79.76,0,0,0-42.47-13H363.06V40ZM674.53,159.25c.22-.19.46-.41.7-.58a11.75,11.75,0,0,0,1.1-.95c2.59-2.4,6.62-2.18,10.19-1.78s5.57,3.95,5.28,7.09V282.1c.43,3.62-1.76,6.32-5.73,7.05a10.81,10.81,0,0,1-2.84.1c-6-.49-8.76-2.45-8.6-6.2-.11-17.92-.08-36.15-.05-53.78,0-21.74.07-44.22-.15-66.33,0-1.08-.07-2.16-.16-3.19l0-.25Zm-87-118.77a79.85,79.85,0,0,1,41.93,12.81c17,11.06,26.18,27.66,30.93,39.64h0c5.54,13.69,8.67,29.6,9.86,50.06a149.42,149.42,0,0,1,.93,18.18l0,1.19.87-.82,1.3-1.21c.07.85.11,1.73.12,2.61.22,22.1.18,44.58.15,66.32,0,17.63-.05,35.86.05,53.76-.27,6.42,7.1,7,9.52,7.21a11.66,11.66,0,0,0,3.11-.11c4.47-.82,7-4,6.54-8.09v-119c.33-3.58-2.08-7.7-6.17-8.13-3.79-.42-8.07-.65-11,2l-.07.07a10.05,10.05,0,0,1-.94.8l-.07.05c1.12-3.15,4.1-3.79,9.19-3.83h1.57a8.18,8.18,0,0,1,5.81,2.7,7.11,7.11,0,0,1,2,5.28q0,27.92,0,55.85c0,20.68,0,42.07,0,63.12.09,2.6-.1,5.52-2.18,7.42-2.44,2.55-6.21,2.35-9.54,2.17a10.58,10.58,0,0,1-4.84-1.41c-2.25-1.35-2.92-2.94-3.82-5.43l-.12-.33h-.35l-2.65,0h-.46l0,.45c-1.64,15.11-3.59,31.13-7.89,46.31-7,25.16-18.57,44-34.4,56.12-18.22,14.32-40.65,17.64-56.25,17.9-15,.05-30.23,0-45,0q-17.6,0-35.18,0c-8.19,0-14.75-1.41-20.06-4.32a28.3,28.3,0,0,1-4.51-3c-1-.76-2.05-1.54-3.15-2.21l-.11-.07h-.13c-6.64-.24-13.4-.2-19.94-.17-4.24,0-8.62,0-12.94,0-.82,0-1.66,0-2.5,0-3.45-.06-7-.12-10.1,1.84-4.88,3-9,7.06-12.94,11-1.85,1.83-3.76,3.73-5.72,5.49C382,428,355.44,430.62,335.2,419.12c-5.35-3-9.79-7.42-14.08-11.66-4-4-8.13-8-13-11.07-2.56-1.65-5.47-1.88-8.37-1.88l-1.75,0c-.81,0-1.61,0-2.42,0-4.3,0-8.68,0-12.92,0-6.58,0-13.39-.08-20.08.17h-.14l-.12.08c-1,.63-1.89,1.32-2.8,2a31.38,31.38,0,0,1-6.18,3.85c-7.65,3.8-16.37,3.72-24.81,3.64H163c-5.06,0-10.3,0-15.44-.44-19-1.1-36.78-7.47-49.93-17.93-12.52-9.7-22.42-23.9-29.42-42.2C61.37,325.83,58.37,307,56,284.33l0-.37-3.4-.61-.17.33c-.24.48-.47,1-.69,1.49-.69,1.56-1.41,3.17-2.85,4.11-2.11,1.56-4.85,1.48-7.5,1.4-.6,0-1.19,0-1.8,0a7.17,7.17,0,0,1-5.42-2.19A7.07,7.07,0,0,1,32,283.08c0-40.16,0-80.89,0-121.08a7.41,7.41,0,0,1,5.63-7.35A19.41,19.41,0,0,1,52,159.39l-.11.1c-.3.25-.6.52-.9.8-2.94-3.13-8.63-5.45-12.49-5-4.09.41-6.2,4.4-5.89,8,0,19.5-.07,39.28-.14,58.41-.07,19.8-.15,40.27-.14,60.42-.31,3.59,2.13,7.7,6.26,8.1l.93.07c3.46.25,7.39.54,10-2.18,2-1.9,2-4.67,2-7.12,0-.29,0-.58,0-.87-.06-17.26,0-34.82,0-51.8,0-22,0-44.65-.1-67,.2-.16.43-.38.74-.68l.23-.23,1.12,5.29.32-6.32c1-20.25,2.07-41.19,8.75-60.66,4.25-12.62,12.73-30.22,29-42.45,12.64-9.77,29-15.35,46-15.74Zm-549,115.78a8.1,8.1,0,0,1,.88,0,16.47,16.47,0,0,1,11,5c.13,22.35.12,45.07.1,67.05,0,17,0,34.54,0,51.79,0,.29,0,.58,0,.87,0,2.36,0,4.8-1.74,6.42-2.32,2.4-6,2.13-9.25,1.9l-.92-.07c-3.52-.35-5.61-3.91-5.34-7.06,0-20.19.07-40.66.14-60.46.07-19.13.14-38.91.14-58.46C33.3,160.05,35.09,156.6,38.57,156.25Z" transform="translate(0 0)"/><path class="cls-2" d="M436.63,382.33h-.09c-27.56.13-55.59.12-82.69.1q-26.15,0-52.31,0c-2,0-4.06,0-6-.07A62,62,0,0,0,282,383a44.78,44.78,0,0,0-17.68,9.6l-1,.87h1.29q6.39,0,12.79,0c7.91,0,16.08-.07,24.14,0,3.47-.06,7.13,1.47,11.17,4.67a110.93,110.93,0,0,1,8.76,8.07c1.82,1.8,3.7,3.66,5.62,5.4,9.33,8.84,22.35,13.44,35.5,13.44A53.7,53.7,0,0,0,390,417.7c5.12-3.13,9.41-7.37,13.56-11.48a112.86,112.86,0,0,1,8.77-8.09c4-3.13,7.56-4.65,11-4.65h.21c8-.12,16.2-.08,24.1,0q6.39,0,12.78,0h1.35l-1-.88C455.34,387.9,446.73,382.33,436.63,382.33Zm11.06,10.1c-7.91,0-16.08-.07-24.1,0-3.69,0-7.59,1.52-11.83,4.87a113.61,113.61,0,0,0-8.86,8.16c-4.11,4.06-8.35,8.26-13.37,11.33-19.41,11.57-45.95,9-61.74-6-1.92-1.73-3.79-3.58-5.6-5.38a111.47,111.47,0,0,0-8.84-8.14c-4.15-3.29-7.95-4.89-11.59-4.89h-.2c-8.05-.12-16.23-.08-24.14,0q-5.73,0-11.46,0a44.25,44.25,0,0,1,16.25-8.5,61.25,61.25,0,0,1,13.24-.61c2,.05,4.06.11,6.09.07q26.15,0,52.3,0c27.11,0,55.13,0,82.7-.1h.09c9.18,0,17.12,4.78,22.46,9.14Q453.39,392.47,447.69,392.43Z" transform="translate(0 0)"/><path class="cls-2" d="M406,126.64c-17.35,0-35.3,0-52.94,0h-.8q-13.9,0-27.8,0c-11.08,0-22.55,0-33.82,0h-2.5l2.3,1a103,103,0,0,1,52.18,49.12,100.23,100.23,0,0,1,10.25,45.2c-3.77,7.31-7.82,14.64-11.74,21.73-2.75,5-5.59,10.11-8.31,15.21l-.74,1.38,1.4-.7c1.35-.67,2.73-1.45,4.06-2.2,4.43-2.5,9-5.1,14.08-4.74a7.57,7.57,0,0,1,5.12,3.13,9.74,9.74,0,0,1,1.65,7.22l-.1.58h8.46l-.1-.58a9.76,9.76,0,0,1,1.66-7.22,7.55,7.55,0,0,1,5.07-3.11c5.1-.36,9.68,2.23,14.11,4.73,1.33.75,2.71,1.53,4.06,2.2l1.42.71-4.45-8.16c-4.94-9.07-10.06-18.44-15.14-27.61-.13-.28-.28-.55-.43-.83a6.08,6.08,0,0,1-.92-2.49c.14-26,10.34-51.43,28-69.67a103.58,103.58,0,0,1,34.53-23.89l2.2-1h-2.4Zm-6.7,24.13c-17.81,18.42-28.11,44.06-28.25,70.38a6.89,6.89,0,0,0,1,2.95c.14.26.28.52.42.81,5.09,9.18,10.21,18.56,15.15,27.62l2.9,5.32c-.86-.46-1.72-1-2.57-1.43-4.56-2.58-9.27-5.23-14.71-4.86a8.55,8.55,0,0,0-5.77,3.52,10.61,10.61,0,0,0-1.92,7.4h-6.13a10.58,10.58,0,0,0-1.91-7.39,8.57,8.57,0,0,0-5.82-3.53c-5.41-.38-10.12,2.28-14.67,4.86-.85.48-1.72,1-2.59,1.44,2.48-4.62,5-9.26,7.54-13.77,3.94-7.13,8-14.51,11.8-21.86l.05-.1V222a101.23,101.23,0,0,0-10.35-45.77,104,104,0,0,0-50.46-48.63c10.49,0,21.11,0,31.4,0q13.9,0,27.8,0h1.1v-1H375v1l31,0,26,0A103.77,103.77,0,0,0,399.32,150.77Z" transform="translate(0 0)"/><polygon class="cls-3" points="362.06 39.98 363.06 39.98 363.06 39.48 363.06 27.54 363.06 27.04 362.06 27.04 362.06 27.54 362.06 39.48 362.06 39.98"/><path class="cls-3" d="M364.21,151.35A10.85,10.85,0,0,0,375,140.52V126.69H353.38v13.83A10.85,10.85,0,0,0,364.21,151.35Zm-9.83-23.67H374v12.83a9.83,9.83,0,1,1-19.67,0Z" transform="translate(0 0)"/></svg>