<svg id="Layer_1" data-name="Layer 1" xmlns="http://www.w3.org/2000/svg" viewBox="0 0 111.99 211.51"><defs><style>.cls-1{fill:none;}.cls-2{fill:#5e5e60;}</style></defs><title>SOFTWARE</title><path class="cls-1" d="M111,154.85c-9.22-3.95-18.65-7.9-27.76-11.72L68.55,137c-1.06-.53-15.49-6.62-16.25-6.91l.18-.47-.19.46c-.34-.14-34.45-14.36-38-15.85-4.49-1.86-9.12-4-12.09-8.07a9,9,0,0,1-1.12-1.94l0-.09c0,3.43,0,6.79,0,10.12,0,9.13-.08,17.75,0,27.09v.09l0,.08a.41.41,0,0,0,0,.13,5,5,0,0,1,0,.58c0,4.2,0,8.41,0,12.46V155A11.71,11.71,0,0,0,4,162.53c2.57,3,6.2,4.76,9.76,6.23,4.74,2,9.52,4,14.3,6s9.55,4.06,14.29,6l-.19.46.19-.46q21.4,9,42.75,18.13L111,210q0-12,0-24C110.95,175.8,110.93,165.25,111,154.85Z"/><path class="cls-1" d="M94.71,62,55.08,78.78,24,91.9l-1.35.57c-2.4,1-4.89,2-6.72,3.89a3.32,3.32,0,0,0-1,3.58c.86,2,2.86,3.29,4.88,4.37,2.25,1.07,11.72,5,19.33,8.1,4.81,2,8.62,3.55,9.3,3.87L57.42,120q7.22,3,14.42,6l.37.14c.44.18.67.26.86.13,5.32-2.32,10.58-4.59,15.84-6.85l9.81-4.23a28.14,28.14,0,0,0,8.19-4.82,12,12,0,0,0,4.07-8.94q0-10,0-20.07c0-10.16,0-20.64,0-31C109.59,52.58,106.16,56.06,94.71,62Z"/><path class="cls-1" d="M1.08,56.65c5.85,2.4,11.78,4.95,17.52,7.41C25.37,67,32.37,70,39.27,72.75c3.21-1.2,6.42-2.55,9.54-3.86C51,68,53.18,67,55.38,66.17l15.08-6.25,14.42-6,2-.83a37.18,37.18,0,0,0,8-4,4.92,4.92,0,0,0,2.36-4.21A5.47,5.47,0,0,0,95.21,42a29.8,29.8,0,0,0-6.43-3.31L87,38,47.65,21.28Q24.35,11.4,1.08,1.51c0,13.52,0,27.18,0,40.39Z"/><path class="cls-2" d="M.09,57.32l.31.13c5.94,2.44,12,5,17.82,7.53,6.83,2.93,13.89,6,20.86,8.77l.18.07.18-.07c3.29-1.22,6.58-2.6,9.76-3.94,2.15-.9,4.36-1.84,6.57-2.71l15.09-6.25,14.43-6,2-.82a37.89,37.89,0,0,0,8.21-4.12,5.88,5.88,0,0,0,2.76-5.2,6.45,6.45,0,0,0-2.45-3.5,30.53,30.53,0,0,0-6.64-3.43l-1.72-.73Q67.76,28.71,48,20.36,24.4,10.33.78.3L.09,0V.75c0,13.76,0,27.69,0,41.15Zm1-55.81q23.25,9.9,46.57,19.77L87,38l1.74.73A29.8,29.8,0,0,1,95.21,42a5.47,5.47,0,0,1,2.06,2.86,4.92,4.92,0,0,1-2.36,4.21,37.18,37.18,0,0,1-8,4l-2,.83-14.42,6L55.38,66.17C53.18,67,51,68,48.8,68.89c-3.11,1.31-6.33,2.66-9.54,3.86C32.37,70,25.37,67,18.61,64.06c-5.74-2.46-11.67-5-17.52-7.41V41.9C1.06,28.69,1,15,1.08,1.51Z"/><path class="cls-2" d="M112,48.2V45.89l-1.09,2.43c-.81,1.87-2.31,5.35-16.59,12.79L54.69,77.86,23.64,91l-1.34.56c-2.5,1-5.08,2.12-7,4.1a4.3,4.3,0,0,0-1.2,4.69c1,2.29,3.14,3.68,5.35,4.86s11.78,5,19.4,8.14c4.64,1.91,8.64,3.56,9.27,3.85l9,3.68c4.81,2,9.62,4,14.45,6l.33.13a2.8,2.8,0,0,0,1.05.28,1.16,1.16,0,0,0,.66-.2q7.87-3.42,15.76-6.81l9.8-4.22a29.11,29.11,0,0,0,8.46-5,13,13,0,0,0,4.41-9.7q0-10,0-20.06C112,70.45,112,59.22,112,48.2Zm-1,33.1q0,10,0,20.07a12,12,0,0,1-4.07,8.94,28.14,28.14,0,0,1-8.19,4.82l-9.81,4.23c-5.26,2.26-10.52,4.53-15.84,6.85-.19.13-.42.05-.86-.13l-.37-.14q-7.2-3-14.42-6l-8.92-3.67c-.69-.32-4.49-1.89-9.3-3.87-7.61-3.13-17.08-7-19.33-8.1-2-1.08-4-2.35-4.88-4.37a3.32,3.32,0,0,1,1-3.58c1.83-1.85,4.32-2.89,6.72-3.89L24,91.9l31-13.13L94.71,62c11.45-6,14.88-9.43,16.26-11.68C111,60.67,111,71.15,111,81.3Z"/><path class="cls-2" d="M83.59,142.21,69,136.07c-1.28-.64-15.73-6.7-16.3-6.93h0c-.34-.14-34.45-14.36-38-15.84-4.36-1.81-8.86-3.89-11.68-7.76a8.1,8.1,0,0,1-1-1.75,9.47,9.47,0,0,0-1-1.85l-.89-1.14v1.45c0,4.08,0,8.06,0,12,0,9.11-.08,17.71,0,27a1.19,1.19,0,0,0,0,.47,3.93,3.93,0,0,1,0,.48c0,4.2,0,8.41,0,12.47V155a12.72,12.72,0,0,0,3.12,8.23c2.7,3.14,6.46,5,10.13,6.5,4.74,2,9.51,4,14.29,6s9.56,4.06,14.29,6q21.4,9,42.74,18.13l26.61,11.3.69.29v-.75q0-12.39,0-24.75c0-10.32,0-21,0-31.48v-.33l-.3-.13C102.34,150.07,92.81,146.07,83.59,142.21ZM85.05,199q-21.36-9.08-42.75-18.13l-.19.46.19-.46c-4.74-2-9.51-4-14.29-6s-9.56-4.06-14.3-6c-3.55-1.47-7.19-3.25-9.76-6.23A11.71,11.71,0,0,1,1.09,155v-.27c0-4.06,0-8.27,0-12.46a5,5,0,0,0,0-.58.41.41,0,0,1,0-.13l0-.08v-.09C1,132,1,123.36,1,114.24c0-3.33,0-6.69,0-10.12l0,.09a9,9,0,0,0,1.12,1.94c3,4.06,7.6,6.21,12.09,8.07,3.5,1.48,37.61,15.7,38,15.85l.19-.46-.18.47c.76.29,15.19,6.38,16.25,6.91l14.66,6.16c9.12,3.82,18.54,7.77,27.76,11.72,0,10.4,0,21,0,31.16q0,12,0,24Z"/></svg>